<svg width="154" height="9" viewBox="0 0 154 9" fill="none" xmlns="http://www.w3.org/2000/svg">
<path d="M4.28008 8.90001C3.52179 8.90001 2.84535 8.73198 2.25078 8.39591C1.66482 8.05985 1.20812 7.56437 0.880677 6.90948C0.553231 6.25459 0.389508 5.45752 0.389508 4.51827C0.389508 3.59625 0.561848 2.80779 0.906528 2.1529C1.25121 1.49801 1.74238 0.993915 2.38003 0.640618C3.02631 0.287322 3.7846 0.110673 4.65492 0.110673C5.62002 0.110673 6.39986 0.287322 6.99443 0.640618C7.58901 0.985298 8.05002 1.53679 8.37746 2.29508L6.32231 3.10939C6.21029 2.66992 6.0121 2.35109 5.72774 2.1529C5.44338 1.95471 5.09008 1.85561 4.66785 1.85561C4.24561 1.85561 3.8837 1.95902 3.5821 2.16583C3.28051 2.36402 3.05216 2.6613 2.89705 3.05768C2.74195 3.44545 2.66439 3.928 2.66439 4.50534C2.66439 5.10853 2.74195 5.61262 2.89705 6.01762C3.06078 6.42262 3.29774 6.72422 3.60796 6.92241C3.92678 7.11198 4.31886 7.20677 4.78418 7.20677C5.03407 7.20677 5.26242 7.17661 5.46923 7.11629C5.67603 7.05597 5.85699 6.9698 6.0121 6.85778C6.1672 6.73714 6.28784 6.59065 6.37401 6.41831C6.46018 6.23736 6.50327 6.02624 6.50327 5.78496V5.65571H4.55152V4.16928H8.39039V8.77075H6.87811L6.71007 6.7673L7.07199 7.07751C6.89103 7.66347 6.56358 8.11586 6.08965 8.43469C5.62433 8.7449 5.02114 8.90001 4.28008 8.90001ZM13.9181 0.110673C14.7798 0.110673 15.5208 0.287322 16.1412 0.640618C16.7703 0.985298 17.2528 1.48508 17.5889 2.13998C17.925 2.79487 18.093 3.58332 18.093 4.50534C18.093 5.42736 17.925 6.21581 17.5889 6.8707C17.2528 7.5256 16.7703 8.02969 16.1412 8.38299C15.5208 8.72767 14.7798 8.90001 13.9181 8.90001C13.0564 8.90001 12.311 8.72767 11.6819 8.38299C11.0529 8.02969 10.5704 7.5256 10.2343 6.8707C9.89823 6.21581 9.7302 5.42736 9.7302 4.50534C9.7302 3.58332 9.89823 2.79487 10.2343 2.13998C10.5704 1.48508 11.0529 0.985298 11.6819 0.640618C12.311 0.287322 13.0564 0.110673 13.9181 0.110673ZM13.9181 1.85561C13.5044 1.85561 13.1555 1.95471 12.8711 2.1529C12.5867 2.35109 12.3713 2.64838 12.2248 3.04476C12.0783 3.43252 12.0051 3.91938 12.0051 4.50534C12.0051 5.08268 12.0783 5.56954 12.2248 5.96592C12.3713 6.3623 12.5867 6.65959 12.8711 6.85778C13.1555 7.05597 13.5044 7.15507 13.9181 7.15507C14.3317 7.15507 14.6763 7.05597 14.9521 6.85778C15.2365 6.65959 15.4519 6.3623 15.5984 5.96592C15.7449 5.56954 15.8181 5.08268 15.8181 4.50534C15.8181 3.91938 15.7449 3.43252 15.5984 3.04476C15.4519 2.64838 15.2365 2.35109 14.9521 2.1529C14.6763 1.95471 14.3317 1.85561 13.9181 1.85561ZM21.8453 7.05166H26.1237V8.77075H19.6221V0.239928H21.8453V7.05166ZM31.0168 0.239928C32.3524 0.239928 33.3735 0.610459 34.0801 1.35152C34.7953 2.09258 35.1529 3.14385 35.1529 4.50534C35.1529 5.86683 34.7953 6.9181 34.0801 7.65916C33.3735 8.40022 32.3524 8.77075 31.0168 8.77075H27.3976V0.239928H31.0168ZM30.797 7.09044C31.5209 7.09044 32.0465 6.87501 32.3739 6.44416C32.71 6.0047 32.878 5.35842 32.878 4.50534C32.878 3.65226 32.71 3.01029 32.3739 2.57944C32.0465 2.13997 31.5209 1.92024 30.797 1.92024H29.6208V7.09044H30.797ZM36.6752 8.77075V0.239928H43.3189V1.95902H38.8984V3.69103H42.4141V5.30672H38.8984V7.05166H43.4869V8.77075H36.6752ZM52.52 0.239928V8.77075H50.0513L47.4015 4.15635L46.7553 2.88965H46.7423L46.794 4.46656V8.77075H44.8294V0.239928H47.2981L49.9479 4.85433L50.5941 6.12103H50.6071L50.5554 4.54412V0.239928H52.52ZM62.0247 0.239928C62.7227 0.239928 63.3173 0.351949 63.8084 0.575991C64.2996 0.800033 64.6744 1.12317 64.9329 1.5454C65.1915 1.96764 65.3207 2.48035 65.3207 3.08354C65.3207 3.68673 65.1915 4.19944 64.9329 4.62167C64.6744 5.0439 64.2996 5.36704 63.8084 5.59108C63.3173 5.81512 62.7227 5.92714 62.0247 5.92714H60.3315V8.77075H58.1083V0.239928H62.0247ZM61.6757 4.25976C62.141 4.25976 62.49 4.16497 62.7227 3.97539C62.964 3.7772 63.0846 3.47992 63.0846 3.08354C63.0846 2.68715 62.964 2.39418 62.7227 2.2046C62.49 2.00641 62.141 1.90732 61.6757 1.90732H60.3315V4.25976H61.6757ZM70.8136 0.239928C71.8304 0.239928 72.6189 0.481204 73.179 0.963755C73.7477 1.43769 74.0321 2.07104 74.0321 2.8638C74.0321 3.73412 73.752 4.39763 73.1919 4.85433C72.6318 5.31103 71.8434 5.53938 70.8266 5.53938L70.6198 5.65571H68.9265V8.77075H66.7421V0.239928H70.8136ZM70.5034 4.0788C70.9343 4.0788 71.2574 3.99263 71.4728 3.82029C71.6883 3.64795 71.796 3.37221 71.796 2.99306C71.796 2.62253 71.6883 2.35109 71.4728 2.17875C71.2574 2.00641 70.9343 1.92024 70.5034 1.92024H68.9265V4.0788H70.5034ZM71.8089 4.54412L74.5362 8.77075H72.0803L69.8959 5.03529L71.8089 4.54412ZM79.3912 0.110673C80.2529 0.110673 80.994 0.287322 81.6144 0.640618C82.2434 0.985298 82.726 1.48508 83.0621 2.13998C83.3981 2.79487 83.5662 3.58332 83.5662 4.50534C83.5662 5.42736 83.3981 6.21581 83.0621 6.8707C82.726 7.5256 82.2434 8.02969 81.6144 8.38299C80.994 8.72767 80.2529 8.90001 79.3912 8.90001C78.5295 8.90001 77.7841 8.72767 77.1551 8.38299C76.5261 8.02969 76.0435 7.5256 75.7075 6.8707C75.3714 6.21581 75.2034 5.42736 75.2034 4.50534C75.2034 3.58332 75.3714 2.79487 75.7075 2.13998C76.0435 1.48508 76.5261 0.985298 77.1551 0.640618C77.7841 0.287322 78.5295 0.110673 79.3912 0.110673ZM79.3912 1.85561C78.9776 1.85561 78.6286 1.95471 78.3443 2.1529C78.0599 2.35109 77.8445 2.64838 77.698 3.04476C77.5515 3.43252 77.4782 3.91938 77.4782 4.50534C77.4782 5.08268 77.5515 5.56954 77.698 5.96592C77.8445 6.3623 78.0599 6.65959 78.3443 6.85778C78.6286 7.05597 78.9776 7.15507 79.3912 7.15507C79.8048 7.15507 80.1495 7.05597 80.4253 6.85778C80.7096 6.65959 80.925 6.3623 81.0715 5.96592C81.218 5.56954 81.2913 5.08268 81.2913 4.50534C81.2913 3.91938 81.218 3.43252 81.0715 3.04476C80.925 2.64838 80.7096 2.35109 80.4253 2.1529C80.1495 1.95471 79.8048 1.85561 79.3912 1.85561ZM89.0117 0.239928C89.7097 0.239928 90.3043 0.351949 90.7954 0.575991C91.2866 0.800033 91.6614 1.12317 91.92 1.5454C92.1785 1.96764 92.3077 2.48035 92.3077 3.08354C92.3077 3.68673 92.1785 4.19944 91.92 4.62167C91.6614 5.0439 91.2866 5.36704 90.7954 5.59108C90.3043 5.81512 89.7097 5.92714 89.0117 5.92714H87.3185V8.77075H85.0953V0.239928H89.0117ZM88.6627 4.25976C89.128 4.25976 89.477 4.16497 89.7097 3.97539C89.951 3.7772 90.0716 3.47992 90.0716 3.08354C90.0716 2.68715 89.951 2.39418 89.7097 2.2046C89.477 2.00641 89.128 1.90732 88.6627 1.90732H87.3185V4.25976H88.6627ZM93.7291 8.77075V0.239928H100.373V1.95902H95.9523V3.69103H99.468V5.30672H95.9523V7.05166H100.541V8.77075H93.7291ZM105.955 0.239928C106.972 0.239928 107.76 0.481204 108.32 0.963755C108.889 1.43769 109.173 2.07104 109.173 2.8638C109.173 3.73412 108.893 4.39763 108.333 4.85433C107.773 5.31103 106.985 5.53938 105.968 5.53938L105.761 5.65571H104.068V8.77075H101.883V0.239928H105.955ZM105.645 4.0788C106.075 4.0788 106.399 3.99263 106.614 3.82029C106.829 3.64795 106.937 3.37221 106.937 2.99306C106.937 2.62253 106.829 2.35109 106.614 2.17875C106.399 2.00641 106.075 1.92024 105.645 1.92024H104.068V4.0788H105.645ZM106.95 4.54412L109.677 8.77075H107.222L105.037 5.03529L106.95 4.54412ZM117.867 0.239928V1.95902H115.088V8.77075H112.865V1.95902H110.073V0.239928H117.867ZM126.33 0.239928L123.319 5.65571V8.77075H121.096V5.65571L118.084 0.239928H120.385L121.587 2.57944L122.22 4.00125L122.866 2.57944L124.068 0.239928H126.33ZM134.073 0.110673C134.866 0.110673 135.564 0.23562 136.167 0.485512C136.779 0.726788 137.309 1.08439 137.757 1.55833L136.684 2.99306C136.314 2.60529 135.913 2.31662 135.482 2.12705C135.06 1.92886 134.577 1.82976 134.034 1.82976C133.716 1.82976 133.457 1.86423 133.259 1.93317C133.061 2.0021 132.919 2.09689 132.832 2.21753C132.746 2.33817 132.703 2.47604 132.703 2.63114C132.703 2.8121 132.785 2.96721 132.949 3.09646C133.121 3.2171 133.397 3.3205 133.776 3.40667L135.211 3.72981C136.064 3.928 136.688 4.21667 137.085 4.59582C137.481 4.97497 137.679 5.47906 137.679 6.1081C137.679 6.71129 137.524 7.224 137.214 7.64623C136.904 8.05985 136.477 8.37437 135.934 8.5898C135.392 8.7966 134.771 8.90001 134.073 8.90001C133.504 8.90001 132.962 8.83969 132.445 8.71905C131.928 8.5898 131.462 8.40884 131.049 8.17618C130.635 7.94352 130.286 7.67639 130.002 7.3748L131.074 5.88837C131.29 6.13826 131.553 6.3623 131.863 6.56049C132.182 6.75007 132.526 6.90086 132.897 7.01289C133.276 7.12491 133.66 7.18092 134.047 7.18092C134.349 7.18092 134.599 7.15076 134.797 7.09044C135.004 7.03012 135.155 6.93964 135.249 6.819C135.344 6.69836 135.392 6.55618 135.392 6.39246C135.392 6.2115 135.327 6.06071 135.198 5.94007C135.068 5.81081 134.823 5.7031 134.461 5.61693L132.884 5.26794C132.402 5.15592 131.971 5.00943 131.592 4.82848C131.221 4.6389 130.928 4.38901 130.713 4.0788C130.497 3.75997 130.389 3.36359 130.389 2.88965C130.389 2.3554 130.536 1.88147 130.829 1.46785C131.122 1.04562 131.544 0.713863 132.096 0.472587C132.647 0.231311 133.306 0.110673 134.073 0.110673ZM142.895 0.110673C143.757 0.110673 144.498 0.287322 145.118 0.640618C145.747 0.985298 146.23 1.48508 146.566 2.13998C146.902 2.79487 147.07 3.58332 147.07 4.50534C147.07 5.42736 146.902 6.21581 146.566 6.8707C146.23 7.5256 145.747 8.02969 145.118 8.38299C144.498 8.72767 143.757 8.90001 142.895 8.90001C142.034 8.90001 141.288 8.72767 140.659 8.38299C140.03 8.02969 139.548 7.5256 139.212 6.8707C138.875 6.21581 138.707 5.42736 138.707 4.50534C138.707 3.58332 138.875 2.79487 139.212 2.13998C139.548 1.48508 140.03 0.985298 140.659 0.640618C141.288 0.287322 142.034 0.110673 142.895 0.110673ZM142.895 1.85561C142.482 1.85561 142.133 1.95471 141.848 2.1529C141.564 2.35109 141.349 2.64838 141.202 3.04476C141.056 3.43252 140.982 3.91938 140.982 4.50534C140.982 5.08268 141.056 5.56954 141.202 5.96592C141.349 6.3623 141.564 6.65959 141.848 6.85778C142.133 7.05597 142.482 7.15507 142.895 7.15507C143.309 7.15507 143.654 7.05597 143.929 6.85778C144.214 6.65959 144.429 6.3623 144.576 5.96592C144.722 5.56954 144.795 5.08268 144.795 4.50534C144.795 3.91938 144.722 3.43252 144.576 3.04476C144.429 2.64838 144.214 2.35109 143.929 2.1529C143.654 1.95471 143.309 1.85561 142.895 1.85561ZM156.057 0.239928V5.29379C156.057 6.50017 155.734 7.40496 155.088 8.00815C154.45 8.60272 153.502 8.90001 152.244 8.90001C150.995 8.90001 150.047 8.60272 149.401 8.00815C148.754 7.40496 148.431 6.50017 148.431 5.29379V0.239928H150.667V5.33257C150.667 5.94438 150.797 6.40108 151.055 6.70267C151.322 7.00427 151.719 7.15507 152.244 7.15507C152.779 7.15507 153.175 7.00427 153.433 6.70267C153.701 6.40108 153.834 5.94438 153.834 5.33257V0.239928H156.057ZM159.999 7.05166H164.277V8.77075H157.776V0.239928H159.999V7.05166ZM172.934 0.239928V5.29379C172.934 6.50017 172.611 7.40496 171.964 8.00815C171.327 8.60272 170.379 8.90001 169.121 8.90001C167.871 8.90001 166.923 8.60272 166.277 8.00815C165.631 7.40496 165.308 6.50017 165.308 5.29379V0.239928H167.544V5.33257C167.544 5.94438 167.673 6.40108 167.932 6.70267C168.199 7.00427 168.595 7.15507 169.121 7.15507C169.655 7.15507 170.051 7.00427 170.31 6.70267C170.577 6.40108 170.711 5.94438 170.711 5.33257V0.239928H172.934ZM181.826 0.239928V1.95902H179.047V8.77075H176.824V1.95902H174.032V0.239928H181.826ZM185.32 0.239928V8.77075H183.097V0.239928H185.32ZM191.038 0.110673C191.899 0.110673 192.64 0.287322 193.261 0.640618C193.89 0.985298 194.372 1.48508 194.709 2.13998C195.045 2.79487 195.213 3.58332 195.213 4.50534C195.213 5.42736 195.045 6.21581 194.709 6.8707C194.372 7.5256 193.89 8.02969 193.261 8.38299C192.64 8.72767 191.899 8.90001 191.038 8.90001C190.176 8.90001 189.431 8.72767 188.802 8.38299C188.173 8.02969 187.69 7.5256 187.354 6.8707C187.018 6.21581 186.85 5.42736 186.85 4.50534C186.85 3.58332 187.018 2.79487 187.354 2.13998C187.69 1.48508 188.173 0.985298 188.802 0.640618C189.431 0.287322 190.176 0.110673 191.038 0.110673ZM191.038 1.85561C190.624 1.85561 190.275 1.95471 189.991 2.1529C189.706 2.35109 189.491 2.64838 189.344 3.04476C189.198 3.43252 189.125 3.91938 189.125 4.50534C189.125 5.08268 189.198 5.56954 189.344 5.96592C189.491 6.3623 189.706 6.65959 189.991 6.85778C190.275 7.05597 190.624 7.15507 191.038 7.15507C191.451 7.15507 191.796 7.05597 192.072 6.85778C192.356 6.65959 192.571 6.3623 192.718 5.96592C192.864 5.56954 192.938 5.08268 192.938 4.50534C192.938 3.91938 192.864 3.43252 192.718 3.04476C192.571 2.64838 192.356 2.35109 192.072 2.1529C191.796 1.95471 191.451 1.85561 191.038 1.85561ZM204.432 0.239928V8.77075H201.964L199.314 4.15635L198.668 2.88965H198.655L198.706 4.46656V8.77075H196.742V0.239928H199.211L201.86 4.85433L202.507 6.12103H202.519L202.468 4.54412V0.239928H204.432Z" fill="#24173D"/>
<path d="M2.25078 8.39591L1.75326 9.26339L1.75872 9.26648L2.25078 8.39591ZM0.906528 2.1529L0.0216099 1.68715L0.0216098 1.68715L0.906528 2.1529ZM2.38003 0.640618L1.90035 -0.236844L1.8954 -0.234096L2.38003 0.640618ZM6.99443 0.640618L6.48358 1.50035L6.4929 1.50576L6.99443 0.640618ZM8.37746 2.29508L8.74583 3.22476L9.70419 2.84503L9.29552 1.89864L8.37746 2.29508ZM6.32231 3.10939L5.35329 3.35639L5.63403 4.45774L6.69067 4.03907L6.32231 3.10939ZM5.72774 2.1529L6.29953 1.3325H6.29953L5.72774 2.1529ZM3.5821 2.16583L4.13128 3.00153L4.13951 2.99612L4.14763 2.99055L3.5821 2.16583ZM2.89705 3.05768L3.82556 3.42909L3.8283 3.42208L2.89705 3.05768ZM2.89705 6.01762L1.9632 6.37527L1.96649 6.38387L1.96994 6.39241L2.89705 6.01762ZM3.60796 6.92241L3.06957 7.7651L3.08309 7.77374L3.09688 7.78194L3.60796 6.92241ZM5.46923 7.11629L5.18923 6.15629L5.46923 7.11629ZM6.0121 6.85778L6.59759 7.66846L6.612 7.65805L6.62604 7.64713L6.0121 6.85778ZM6.37401 6.41831L7.26844 6.86553L7.27274 6.85693L7.27687 6.84825L6.37401 6.41831ZM6.50327 5.65571H7.50327V4.65571H6.50327V5.65571ZM4.55152 5.65571H3.55152V6.65571H4.55152V5.65571ZM4.55152 4.16928V3.16928H3.55152V4.16928H4.55152ZM8.39039 4.16928H9.39039V3.16928H8.39039V4.16928ZM8.39039 8.77075V9.77075H9.39039V8.77075H8.39039ZM6.87811 8.77075L5.8816 8.85433L5.95847 9.77075H6.87811V8.77075ZM6.71007 6.7673L7.36087 6.00804L5.50981 4.42143L5.71357 6.85088L6.71007 6.7673ZM7.07199 7.07751L8.02746 7.37259L8.22114 6.74543L7.72278 6.31826L7.07199 7.07751ZM6.08965 8.43469L6.64435 9.26675L6.64783 9.26441L6.08965 8.43469ZM4.28008 7.90001C3.67477 7.90001 3.17123 7.76748 2.74284 7.52535L1.75872 9.26648C2.51948 9.69647 3.3688 9.90001 4.28008 9.90001V7.90001ZM2.74829 7.52846C2.34752 7.2986 2.02223 6.95651 1.7751 6.46227L-0.0137501 7.3567C0.394019 8.17223 0.982125 8.8211 1.75327 9.26337L2.74829 7.52846ZM1.7751 6.46227C1.53389 5.97983 1.38951 5.3448 1.38951 4.51827H-0.610492C-0.610492 5.57024 -0.427424 6.52935 -0.0137501 7.3567L1.7751 6.46227ZM1.38951 4.51827C1.38951 3.71936 1.5387 3.09886 1.79145 2.61865L0.0216098 1.68715C-0.415005 2.51672 -0.610492 3.47313 -0.610492 4.51827H1.38951ZM1.79145 2.61865C2.04685 2.13338 2.40016 1.7727 2.86467 1.51533L1.8954 -0.234096C1.08459 0.215132 0.455565 0.862639 0.0216099 1.68715L1.79145 2.61865ZM2.85971 1.51807C3.33428 1.25863 3.92176 1.11067 4.65492 1.11067V-0.889327C3.64745 -0.889327 2.71834 -0.68399 1.90036 -0.23683L2.85971 1.51807ZM4.65492 1.11067C5.50803 1.11067 6.093 1.2682 6.48361 1.5003L7.50526 -0.219065C6.70672 -0.693561 5.73202 -0.889327 4.65492 -0.889327V1.11067ZM6.4929 1.50576C6.86691 1.72257 7.19935 2.08929 7.4594 2.69152L9.29552 1.89864C8.90069 0.984284 8.31111 0.248024 7.49597 -0.224522L6.4929 1.50576ZM8.0091 1.3654L5.95394 2.17971L6.69067 4.03907L8.74583 3.22476L8.0091 1.3654ZM7.29132 2.86238C7.13862 2.26334 6.83492 1.70565 6.29953 1.3325L5.15594 2.9733C5.18928 2.99653 5.28195 3.07651 5.35329 3.35639L7.29132 2.86238ZM6.29953 1.3325C5.81375 0.99393 5.24928 0.855614 4.66785 0.855614V2.85561C4.93088 2.85561 5.073 2.91549 5.15594 2.9733L6.29953 1.3325ZM4.66785 0.855614C4.07589 0.855614 3.50935 1.0032 3.01658 1.3411L4.14763 2.99055C4.25805 2.91484 4.41534 2.85561 4.66785 2.85561V0.855614ZM3.03293 1.33012C2.52886 1.66136 2.18248 2.13958 1.96581 2.69329L3.8283 3.42208C3.92184 3.18303 4.03216 3.06667 4.13128 3.00153L3.03293 1.33012ZM1.96858 2.68629C1.75189 3.22801 1.66439 3.8461 1.66439 4.50534H3.66439C3.66439 4.0099 3.732 3.66289 3.82553 3.42908L1.96858 2.68629ZM1.66439 4.50534C1.66439 5.18646 1.75091 5.82096 1.9632 6.37527L3.83091 5.65998C3.73299 5.40429 3.66439 5.0306 3.66439 4.50534H1.66439ZM1.96994 6.39241C2.1966 6.95309 2.55357 7.43544 3.06957 7.7651L4.14635 6.07971C4.04192 6.01299 3.92495 5.89215 3.82416 5.64283L1.96994 6.39241ZM3.09688 7.78194C3.60511 8.08413 4.18426 8.20677 4.78418 8.20677V6.20677C4.45346 6.20677 4.24846 6.13983 4.11903 6.06287L3.09688 7.78194ZM4.78418 8.20677C5.11405 8.20677 5.43828 8.16698 5.74923 8.07629L5.18923 6.15629C5.08656 6.18623 4.95409 6.20677 4.78418 6.20677V8.20677ZM5.74923 8.07629C6.05197 7.98799 6.33904 7.85518 6.59759 7.66846L5.42661 6.0471C5.37494 6.08442 5.30009 6.12395 5.18923 6.15629L5.74923 8.07629ZM6.62604 7.64713C6.8966 7.4367 7.11414 7.17413 7.26844 6.86553L5.47958 5.9711C5.46154 6.00718 5.43781 6.03759 5.39816 6.06843L6.62604 7.64713ZM7.27687 6.84825C7.4387 6.5084 7.50327 6.14511 7.50327 5.78496H5.50327C5.50327 5.90736 5.48166 5.96632 5.47115 5.98838L7.27687 6.84825ZM7.50327 5.78496V5.65571H5.50327V5.78496H7.50327ZM6.50327 4.65571H4.55152V6.65571H6.50327V4.65571ZM5.55152 5.65571V4.16928H3.55152V5.65571H5.55152ZM4.55152 5.16928H8.39039V3.16928H4.55152V5.16928ZM7.39039 4.16928V8.77075H9.39039V4.16928H7.39039ZM8.39039 7.77075H6.87811V9.77075H8.39039V7.77075ZM7.87461 8.68717L7.70657 6.68372L5.71357 6.85088L5.8816 8.85433L7.87461 8.68717ZM6.05928 7.52656L6.4212 7.83677L7.72278 6.31826L7.36087 6.00804L6.05928 7.52656ZM6.11651 6.78244C5.99767 7.16726 5.80131 7.42344 5.53147 7.60497L6.64783 9.26441C7.32586 8.80828 7.78439 8.15968 8.02746 7.37259L6.11651 6.78244ZM5.53495 7.60264C5.2795 7.77294 4.88676 7.90001 4.28008 7.90001V9.90001C5.15552 9.90001 5.96916 9.71687 6.64435 9.26674L5.53495 7.60264ZM16.1412 0.640618L15.6464 1.5096L15.6535 1.51366L15.6607 1.51759L16.1412 0.640618ZM17.5889 2.13998L18.4786 1.68342V1.68342L17.5889 2.13998ZM17.5889 6.8707L18.4786 7.32726L17.5889 6.8707ZM16.1412 8.38299L16.6269 9.25715L16.6309 9.25488L16.1412 8.38299ZM11.6819 8.38299L11.1922 9.25493L11.2014 9.25996L11.6819 8.38299ZM10.2343 6.8707L11.124 6.41415L10.2343 6.8707ZM10.2343 2.13998L11.124 2.59653L10.2343 2.13998ZM11.6819 0.640618L12.1625 1.51764L12.1716 1.51251L11.6819 0.640618ZM12.8711 2.1529L12.2993 1.3325L12.8711 2.1529ZM12.2248 3.04476L13.1603 3.39817L13.1628 3.39141L12.2248 3.04476ZM12.2248 5.96592L11.2868 6.31257L12.2248 5.96592ZM14.9521 6.85778L14.3803 6.03738L14.3743 6.04153L14.3685 6.04576L14.9521 6.85778ZM15.5984 5.96592L14.6604 5.61927L15.5984 5.96592ZM15.5984 3.04476L14.6603 3.39142L14.6629 3.39816L15.5984 3.04476ZM14.9521 2.1529L14.3685 2.96492L14.3743 2.96915L14.3803 2.9733L14.9521 2.1529ZM13.9181 1.11067C14.6421 1.11067 15.2051 1.25831 15.6464 1.5096L16.6361 -0.228366C15.8365 -0.683671 14.9174 -0.889327 13.9181 -0.889327V1.11067ZM15.6607 1.51759C16.1096 1.76355 16.4519 2.11458 16.6992 2.59653L18.4786 1.68342C18.0538 0.855591 17.431 0.207048 16.6218 -0.236358L15.6607 1.51759ZM16.6992 2.59653C16.9468 3.07895 17.093 3.70287 17.093 4.50534H19.093C19.093 3.46377 18.9032 2.51078 18.4786 1.68342L16.6992 2.59653ZM17.093 4.50534C17.093 5.30781 16.9468 5.93173 16.6992 6.41415L18.4786 7.32726C18.9032 6.4999 19.093 5.54691 19.093 4.50534H17.093ZM16.6992 6.41415C16.4509 6.89808 16.1057 7.25601 15.6515 7.51109L16.6309 9.25488C17.4348 8.80337 18.0548 8.15311 18.4786 7.32726L16.6992 6.41415ZM15.6556 7.50883C15.2124 7.75503 14.646 7.90001 13.9181 7.90001V9.90001C14.9135 9.90001 15.8292 9.7003 16.6269 9.25714L15.6556 7.50883ZM13.9181 7.90001C13.1906 7.90001 12.6173 7.7552 12.1625 7.50601L11.2014 9.25996C12.0047 9.70013 12.9221 9.90001 13.9181 9.90001V7.90001ZM12.1716 7.51109C11.7175 7.25601 11.3723 6.89808 11.124 6.41415L9.34459 7.32726C9.76839 8.15311 10.3883 8.80337 11.1923 9.25488L12.1716 7.51109ZM11.124 6.41415C10.8764 5.93173 10.7302 5.30781 10.7302 4.50534H8.7302C8.7302 5.54691 8.92003 6.4999 9.34459 7.32726L11.124 6.41415ZM10.7302 4.50534C10.7302 3.70287 10.8764 3.07895 11.124 2.59653L9.34459 1.68342C8.92003 2.51078 8.7302 3.46377 8.7302 4.50534H10.7302ZM11.124 2.59653C11.3713 2.11458 11.7136 1.76355 12.1625 1.51759L11.2014 -0.236357C10.3922 0.207048 9.7694 0.855591 9.34459 1.68342L11.124 2.59653ZM12.1716 1.51251C12.6245 1.25815 13.1945 1.11067 13.9181 1.11067V-0.889327C12.9182 -0.889327 11.9974 -0.683506 11.1923 -0.231276L12.1716 1.51251ZM13.9181 0.855614C13.3403 0.855614 12.7817 0.996253 12.2993 1.3325L13.4429 2.9733C13.5292 2.91317 13.6685 2.85561 13.9181 2.85561V0.855614ZM12.2993 1.3325C11.8136 1.67103 11.4884 2.15272 11.2868 2.69811L13.1628 3.39141C13.2542 3.14403 13.3599 3.03115 13.4429 2.9733L12.2993 1.3325ZM11.2893 2.69136C11.0865 3.22832 11.0051 3.84467 11.0051 4.50534H13.0051C13.0051 3.99409 13.0702 3.63673 13.1603 3.39816L11.2893 2.69136ZM11.0051 4.50534C11.0051 5.1606 11.0873 5.77278 11.2868 6.31257L13.1628 5.61927C13.0693 5.3663 13.0051 5.00475 13.0051 4.50534H11.0051ZM11.2868 6.31257C11.4884 6.85796 11.8136 7.33965 12.2993 7.67818L13.4429 6.03738C13.3599 5.97953 13.2542 5.86665 13.1628 5.61927L11.2868 6.31257ZM12.2993 7.67818C12.7817 8.01443 13.3403 8.15507 13.9181 8.15507V6.15507C13.6685 6.15507 13.5292 6.09751 13.4429 6.03738L12.2993 7.67818ZM13.9181 8.15507C14.4946 8.15507 15.0557 8.01482 15.5357 7.6698L14.3685 6.04576C14.297 6.09712 14.1687 6.15507 13.9181 6.15507V8.15507ZM15.5239 7.67818C16.0096 7.33965 16.3348 6.85796 16.5364 6.31257L14.6604 5.61927C14.569 5.86665 14.4633 5.97953 14.3803 6.03738L15.5239 7.67818ZM16.5364 6.31257C16.7359 5.77278 16.8181 5.1606 16.8181 4.50534H14.8181C14.8181 5.00475 14.7539 5.3663 14.6604 5.61927L16.5364 6.31257ZM16.8181 4.50534C16.8181 3.84467 16.7367 3.22832 16.5338 2.69136L14.6629 3.39816C14.753 3.63673 14.8181 3.99409 14.8181 4.50534H16.8181ZM16.5364 2.69811C16.3348 2.15272 16.0096 1.67103 15.5239 1.3325L14.3803 2.9733C14.4633 3.03115 14.569 3.14403 14.6604 3.39141L16.5364 2.69811ZM15.5357 1.34089C15.0557 0.995863 14.4946 0.855614 13.9181 0.855614V2.85561C14.1687 2.85561 14.297 2.91356 14.3685 2.96492L15.5357 1.34089ZM21.8453 7.05166H20.8453V8.05166H21.8453V7.05166ZM26.1237 7.05166H27.1237V6.05166H26.1237V7.05166ZM26.1237 8.77075V9.77075H27.1237V8.77075H26.1237ZM19.6221 8.77075H18.6221V9.77075H19.6221V8.77075ZM19.6221 0.239928V-0.760072H18.6221V0.239928H19.6221ZM21.8453 0.239928H22.8453V-0.760072H21.8453V0.239928ZM21.8453 8.05166H26.1237V6.05166H21.8453V8.05166ZM25.1237 7.05166V8.77075H27.1237V7.05166H25.1237ZM26.1237 7.77075H19.6221V9.77075H26.1237V7.77075ZM20.6221 8.77075V0.239928H18.6221V8.77075H20.6221ZM19.6221 1.23993H21.8453V-0.760072H19.6221V1.23993ZM20.8453 0.239928V7.05166H22.8453V0.239928H20.8453ZM34.0801 1.35152L33.3564 2.04161L33.3606 2.04597L34.0801 1.35152ZM34.0801 7.65916L33.3605 6.9647L33.3564 6.96908L34.0801 7.65916ZM27.3976 8.77075H26.3976V9.77075H27.3976V8.77075ZM27.3976 0.239928V-0.760072H26.3976V0.239928H27.3976ZM32.3739 6.44416L31.5796 5.83671L31.5778 5.83908L32.3739 6.44416ZM32.3739 2.57944L31.5721 3.17692L31.5786 3.18577L31.5854 3.19447L32.3739 2.57944ZM29.6208 1.92024V0.920242H28.6208V1.92024H29.6208ZM29.6208 7.09044H28.6208V8.09044H29.6208V7.09044ZM31.0168 1.23993C32.1662 1.23993 32.8913 1.55383 33.3564 2.0416L34.8038 0.661445C33.8557 -0.332916 32.5385 -0.760072 31.0168 -0.760072V1.23993ZM33.3606 2.04597C33.8439 2.54677 34.1529 3.31696 34.1529 4.50534H36.1529C36.1529 2.97075 35.7467 1.63839 34.7996 0.657075L33.3606 2.04597ZM34.1529 4.50534C34.1529 5.69372 33.8439 6.46391 33.3606 6.96472L34.7996 8.35361C35.7467 7.37229 36.1529 6.03993 36.1529 4.50534H34.1529ZM33.3564 6.96908C32.8913 7.45685 32.1662 7.77075 31.0168 7.77075V9.77075C32.5385 9.77075 33.8557 9.3436 34.8038 8.34924L33.3564 6.96908ZM31.0168 7.77075H27.3976V9.77075H31.0168V7.77075ZM28.3976 8.77075V0.239928H26.3976V8.77075H28.3976ZM27.3976 1.23993H31.0168V-0.760072H27.3976V1.23993ZM30.797 8.09044C31.7194 8.09044 32.5939 7.80747 33.1701 7.04925L31.5778 5.83908C31.4991 5.94256 31.3223 6.09044 30.797 6.09044V8.09044ZM33.1683 7.05161C33.6927 6.3658 33.878 5.46586 33.878 4.50534H31.878C31.878 5.25099 31.7273 5.64359 31.5796 5.83671L33.1683 7.05161ZM33.878 4.50534C33.878 3.54694 33.6936 2.64538 33.1624 1.96441L31.5854 3.19447C31.7264 3.37521 31.878 3.75757 31.878 4.50534H33.878ZM33.1758 1.98196C32.6022 1.21213 31.7263 0.920242 30.797 0.920242V2.92024C31.3154 2.92024 31.4908 3.06782 31.5721 3.17692L33.1758 1.98196ZM30.797 0.920242H29.6208V2.92024H30.797V0.920242ZM28.6208 1.92024V7.09044H30.6208V1.92024H28.6208ZM29.6208 8.09044H30.797V6.09044H29.6208V8.09044ZM36.6752 8.77075H35.6752V9.77075H36.6752V8.77075ZM36.6752 0.239928V-0.760072H35.6752V0.239928H36.6752ZM43.3189 0.239928H44.3189V-0.760072H43.3189V0.239928ZM43.3189 1.95902V2.95902H44.3189V1.95902H43.3189ZM38.8984 1.95902V0.959018H37.8984V1.95902H38.8984ZM38.8984 3.69103H37.8984V4.69103H38.8984V3.69103ZM42.4141 3.69103H43.4141V2.69103H42.4141V3.69103ZM42.4141 5.30672V6.30672H43.4141V5.30672H42.4141ZM38.8984 5.30672V4.30672H37.8984V5.30672H38.8984ZM38.8984 7.05166H37.8984V8.05166H38.8984V7.05166ZM43.4869 7.05166H44.4869V6.05166H43.4869V7.05166ZM43.4869 8.77075V9.77075H44.4869V8.77075H43.4869ZM37.6752 8.77075V0.239928H35.6752V8.77075H37.6752ZM36.6752 1.23993H43.3189V-0.760072H36.6752V1.23993ZM42.3189 0.239928V1.95902H44.3189V0.239928H42.3189ZM43.3189 0.959018H38.8984V2.95902H43.3189V0.959018ZM37.8984 1.95902V3.69103H39.8984V1.95902H37.8984ZM38.8984 4.69103H42.4141V2.69103H38.8984V4.69103ZM41.4141 3.69103V5.30672H43.4141V3.69103H41.4141ZM42.4141 4.30672H38.8984V6.30672H42.4141V4.30672ZM37.8984 5.30672V7.05166H39.8984V5.30672H37.8984ZM38.8984 8.05166H43.4869V6.05166H38.8984V8.05166ZM42.4869 7.05166V8.77075H44.4869V7.05166H42.4869ZM43.4869 7.77075H36.6752V9.77075H43.4869V7.77075ZM52.52 0.239928H53.52V-0.760072H52.52V0.239928ZM52.52 8.77075V9.77075H53.52V8.77075H52.52ZM50.0513 8.77075L49.1841 9.26872L49.4723 9.77075H50.0513V8.77075ZM47.4015 4.15635L46.5108 4.61082L46.522 4.63286L46.5343 4.65432L47.4015 4.15635ZM46.7553 2.88965L47.646 2.43518L47.3677 1.88965H46.7553V2.88965ZM46.7423 2.88965V1.88965H45.709L45.7429 2.92242L46.7423 2.88965ZM46.794 4.46656H47.794V4.45017L47.7935 4.43379L46.794 4.46656ZM46.794 8.77075V9.77075H47.794V8.77075H46.794ZM44.8294 8.77075H43.8294V9.77075H44.8294V8.77075ZM44.8294 0.239928V-0.760072H43.8294V0.239928H44.8294ZM47.2981 0.239928L48.1653 -0.258041L47.877 -0.760072H47.2981V0.239928ZM49.9479 4.85433L50.8386 4.39986L50.8274 4.37782L50.8151 4.35636L49.9479 4.85433ZM50.5941 6.12103L49.7034 6.5755L49.9817 7.12103H50.5941V6.12103ZM50.6071 6.12103V7.12103H51.6404L51.6065 6.08826L50.6071 6.12103ZM50.5554 4.54412H49.5554V4.56051L49.5559 4.57689L50.5554 4.54412ZM50.5554 0.239928V-0.760072H49.5554V0.239928H50.5554ZM51.52 0.239928V8.77075H53.52V0.239928H51.52ZM52.52 7.77075H50.0513V9.77075H52.52V7.77075ZM50.9185 8.27278L48.2687 3.65838L46.5343 4.65432L49.1841 9.26872L50.9185 8.27278ZM48.2923 3.70188L47.646 2.43518L45.8645 3.34412L46.5108 4.61082L48.2923 3.70188ZM46.7553 1.88965H46.7423V3.88965H46.7553V1.88965ZM45.7429 2.92242L45.7946 4.49933L47.7935 4.43379L47.7418 2.85688L45.7429 2.92242ZM45.794 4.46656V8.77075H47.794V4.46656H45.794ZM46.794 7.77075H44.8294V9.77075H46.794V7.77075ZM45.8294 8.77075V0.239928H43.8294V8.77075H45.8294ZM44.8294 1.23993H47.2981V-0.760072H44.8294V1.23993ZM46.4309 0.737897L49.0807 5.3523L50.8151 4.35636L48.1653 -0.258041L46.4309 0.737897ZM49.0571 5.3088L49.7034 6.5755L51.4849 5.66656L50.8386 4.39986L49.0571 5.3088ZM50.5941 7.12103H50.6071V5.12103H50.5941V7.12103ZM51.6065 6.08826L51.5548 4.51135L49.5559 4.57689L49.6076 6.1538L51.6065 6.08826ZM51.5554 4.54412V0.239928H49.5554V4.54412H51.5554ZM50.5554 1.23993H52.52V-0.760072H50.5554V1.23993ZM63.8084 0.575991L63.3934 1.48581L63.3934 1.48581L63.8084 0.575991ZM64.9329 1.5454L64.0801 2.06756V2.06756L64.9329 1.5454ZM64.9329 4.62167L64.0801 4.09951V4.09952L64.9329 4.62167ZM63.8084 5.59108L63.3934 4.68126L63.8084 5.59108ZM60.3315 5.92714V4.92714H59.3315V5.92714H60.3315ZM60.3315 8.77075V9.77075H61.3315V8.77075H60.3315ZM58.1083 8.77075H57.1083V9.77075H58.1083V8.77075ZM58.1083 0.239928V-0.760072H57.1083V0.239928H58.1083ZM62.7227 3.97539L63.3544 4.75064L63.3574 4.74812L62.7227 3.97539ZM62.7227 2.2046L62.0742 2.96585L62.0893 2.97869L62.1049 2.99092L62.7227 2.2046ZM60.3315 1.90732V0.907316H59.3315V1.90732H60.3315ZM60.3315 4.25976H59.3315V5.25976H60.3315V4.25976ZM62.0247 1.23993C62.6198 1.23993 63.0648 1.3359 63.3934 1.48581L64.2234 -0.333828C63.5697 -0.632006 62.8256 -0.760072 62.0247 -0.760072V1.23993ZM63.3934 1.48581C63.7204 1.63496 63.9351 1.83067 64.0801 2.06756L65.7858 1.02325C65.4138 0.415665 64.8788 -0.0348992 64.2234 -0.333828L63.3934 1.48581ZM64.0801 2.06756C64.2233 2.30147 64.3207 2.62433 64.3207 3.08354H66.3207C66.3207 2.33636 66.1596 1.6338 65.7858 1.02325L64.0801 2.06756ZM64.3207 3.08354C64.3207 3.54274 64.2233 3.8656 64.0801 4.09951L65.7858 5.14382C66.1596 4.53328 66.3207 3.83071 66.3207 3.08354H64.3207ZM64.0801 4.09952C63.9351 4.3364 63.7204 4.53211 63.3934 4.68126L64.2234 6.5009C64.8788 6.20197 65.4138 5.75141 65.7858 5.14382L64.0801 4.09952ZM63.3934 4.68126C63.0648 4.83117 62.6198 4.92714 62.0247 4.92714V6.92714C62.8256 6.92714 63.5697 6.79908 64.2234 6.5009L63.3934 4.68126ZM62.0247 4.92714H60.3315V6.92714H62.0247V4.92714ZM59.3315 5.92714V8.77075H61.3315V5.92714H59.3315ZM60.3315 7.77075H58.1083V9.77075H60.3315V7.77075ZM59.1083 8.77075V0.239928H57.1083V8.77075H59.1083ZM58.1083 1.23993H62.0247V-0.760072H58.1083V1.23993ZM61.6757 5.25976C62.2511 5.25976 62.8683 5.14666 63.3544 4.75063L62.091 3.20016C62.1031 3.1903 62.0909 3.20555 62.0243 3.22363C61.9556 3.24229 61.8438 3.25976 61.6757 3.25976V5.25976ZM63.3574 4.74812C63.89 4.31064 64.0846 3.69162 64.0846 3.08354H62.0846C62.0846 3.18222 62.0694 3.22308 62.0675 3.22777C62.0667 3.22968 62.0683 3.22548 62.0735 3.21833C62.0788 3.21107 62.0844 3.20561 62.0879 3.20267L63.3574 4.74812ZM64.0846 3.08354C64.0846 2.47769 63.8905 1.85042 63.3405 1.41828L62.1049 2.99092C62.0978 2.98537 62.089 2.97685 62.081 2.96617C62.0731 2.95563 62.0698 2.94813 62.0694 2.94727C62.0693 2.9468 62.0846 2.98431 62.0846 3.08354H64.0846ZM63.3712 1.44336C62.8838 1.02824 62.2595 0.907316 61.6757 0.907316V2.90732C62.0226 2.90732 62.0962 2.98459 62.0742 2.96585L63.3712 1.44336ZM61.6757 0.907316H60.3315V2.90732H61.6757V0.907316ZM59.3315 1.90732V4.25976H61.3315V1.90732H59.3315ZM60.3315 5.25976H61.6757V3.25976H60.3315V5.25976ZM73.179 0.963755L72.5263 1.72136L72.5325 1.72672L72.5388 1.73198L73.179 0.963755ZM70.8266 5.53938V4.53938H70.5646L70.3363 4.6678L70.8266 5.53938ZM70.6198 5.65571V6.65571H70.8817L71.11 6.52728L70.6198 5.65571ZM68.9265 5.65571V4.65571H67.9265V5.65571H68.9265ZM68.9265 8.77075V9.77075H69.9265V8.77075H68.9265ZM66.7421 8.77075H65.7421V9.77075H66.7421V8.77075ZM66.7421 0.239928V-0.760072H65.7421V0.239928H66.7421ZM71.4728 3.82029L70.8481 3.03942L70.8481 3.03942L71.4728 3.82029ZM71.4728 2.17875L72.0975 1.39788V1.39788L71.4728 2.17875ZM68.9265 1.92024V0.920242H67.9265V1.92024H68.9265ZM68.9265 4.0788H67.9265V5.0788H68.9265V4.0788ZM71.8089 4.54412L72.6492 4.00193L72.2584 3.39628L71.5602 3.57553L71.8089 4.54412ZM74.5362 8.77075V9.77075H76.3715L75.3764 8.22857L74.5362 8.77075ZM72.0803 8.77075L71.2171 9.27555L71.5067 9.77075H72.0803V8.77075ZM69.8959 5.03528L69.6472 4.0667L68.3638 4.39623L69.0327 5.54008L69.8959 5.03528ZM70.8136 1.23993C71.6808 1.23993 72.2058 1.44528 72.5263 1.72136L73.8317 0.206147C73.032 -0.482873 71.9801 -0.760072 70.8136 -0.760072V1.23993ZM72.5388 1.73198C72.8617 2.00107 73.0321 2.34382 73.0321 2.8638H75.0321C75.0321 1.79825 74.6337 0.874308 73.8192 0.195534L72.5388 1.73198ZM73.0321 2.8638C73.0321 3.5015 72.8392 3.85163 72.56 4.07931L73.8239 5.62935C74.6648 4.94363 75.0321 3.96674 75.0321 2.8638H73.0321ZM72.56 4.07931C72.2387 4.3413 71.7053 4.53938 70.8266 4.53938V6.53938C71.9814 6.53938 73.025 6.28076 73.8239 5.62935L72.56 4.07931ZM70.3363 4.6678L70.1295 4.78413L71.11 6.52728L71.3168 6.41096L70.3363 4.6678ZM70.6198 4.65571H68.9265V6.65571H70.6198V4.65571ZM67.9265 5.65571V8.77075H69.9265V5.65571H67.9265ZM68.9265 7.77075H66.7421V9.77075H68.9265V7.77075ZM67.7421 8.77075V0.239928H65.7421V8.77075H67.7421ZM66.7421 1.23993H70.8136V-0.760072H66.7421V1.23993ZM70.5034 5.0788C71.0411 5.0788 71.6294 4.97563 72.0975 4.60116L70.8481 3.03942C70.869 3.02272 70.8668 3.03314 70.8112 3.04794C70.7538 3.06325 70.6555 3.0788 70.5034 3.0788V5.0788ZM72.0975 4.60116C72.6306 4.17472 72.796 3.55542 72.796 2.99306H70.796C70.796 3.09153 70.7815 3.12596 70.7837 3.12038C70.7853 3.11644 70.7908 3.10375 70.8031 3.08672C70.8156 3.06937 70.8312 3.05298 70.8481 3.03942L72.0975 4.60116ZM72.796 2.99306C72.796 2.43019 72.6253 1.82013 72.0975 1.39788L70.8481 2.95962C70.8328 2.94738 70.8181 2.93209 70.8058 2.91522C70.7937 2.89862 70.7878 2.88566 70.7857 2.88043C70.7823 2.87187 70.796 2.90153 70.796 2.99306H72.796ZM72.0975 1.39788C71.6294 1.02341 71.0411 0.920242 70.5034 0.920242V2.92024C70.6555 2.92024 70.7538 2.93579 70.8112 2.9511C70.8668 2.96591 70.869 2.97632 70.8481 2.95962L72.0975 1.39788ZM70.5034 0.920242H68.9265V2.92024H70.5034V0.920242ZM67.9265 1.92024V4.0788H69.9265V1.92024H67.9265ZM68.9265 5.0788H70.5034V3.0788H68.9265V5.0788ZM70.9686 5.0863L73.6959 9.31294L75.3764 8.22857L72.6492 4.00193L70.9686 5.0863ZM74.5362 7.77075H72.0803V9.77075H74.5362V7.77075ZM72.9436 8.26595L70.7592 4.53049L69.0327 5.54008L71.2171 9.27555L72.9436 8.26595ZM70.1446 6.00387L72.0576 5.5127L71.5602 3.57553L69.6472 4.0667L70.1446 6.00387ZM81.6144 0.640618L81.1196 1.5096L81.1267 1.51366L81.1339 1.51759L81.6144 0.640618ZM83.0621 2.13998L83.9518 1.68342V1.68342L83.0621 2.13998ZM83.0621 6.8707L83.9518 7.32726L83.0621 6.8707ZM81.6144 8.38299L82.1001 9.25715L82.1041 9.25488L81.6144 8.38299ZM77.1551 8.38299L76.6654 9.25493L76.6746 9.25996L77.1551 8.38299ZM75.7075 6.8707L76.5971 6.41415L75.7075 6.8707ZM75.7075 2.13998L76.5971 2.59653L75.7075 2.13998ZM77.1551 0.640618L77.6357 1.51764L77.6448 1.51251L77.1551 0.640618ZM78.3443 2.1529L77.7725 1.3325L78.3443 2.1529ZM77.698 3.04476L78.6335 3.39817L78.636 3.39141L77.698 3.04476ZM77.698 5.96592L76.76 6.31257L77.698 5.96592ZM80.4253 6.85778L79.8535 6.03738L79.8475 6.04153L79.8416 6.04576L80.4253 6.85778ZM81.0715 5.96592L80.1335 5.61927L81.0715 5.96592ZM81.0715 3.04476L80.1335 3.39142L80.1361 3.39816L81.0715 3.04476ZM80.4253 2.1529L79.8416 2.96492L79.8475 2.96915L79.8535 2.9733L80.4253 2.1529ZM79.3912 1.11067C80.1152 1.11067 80.6783 1.25831 81.1196 1.5096L82.1092 -0.228366C81.3097 -0.683671 80.3906 -0.889327 79.3912 -0.889327V1.11067ZM81.1339 1.51759C81.5827 1.76355 81.925 2.11458 82.1724 2.59653L83.9518 1.68342C83.5269 0.855591 82.9042 0.207048 82.0949 -0.236358L81.1339 1.51759ZM82.1724 2.59653C82.4199 3.07895 82.5662 3.70287 82.5662 4.50534H84.5662C84.5662 3.46377 84.3763 2.51078 83.9518 1.68342L82.1724 2.59653ZM82.5662 4.50534C82.5662 5.30781 82.4199 5.93173 82.1724 6.41415L83.9518 7.32726C84.3763 6.4999 84.5662 5.54691 84.5662 4.50534H82.5662ZM82.1724 6.41415C81.924 6.89808 81.5789 7.25601 81.1247 7.51109L82.1041 9.25488C82.908 8.80337 83.528 8.15311 83.9518 7.32726L82.1724 6.41415ZM81.1288 7.50883C80.6856 7.75503 80.1191 7.90001 79.3912 7.90001V9.90001C80.3867 9.90001 81.3024 9.7003 82.1 9.25714L81.1288 7.50883ZM79.3912 7.90001C78.6638 7.90001 78.0904 7.7552 77.6356 7.50601L76.6746 9.25996C77.4779 9.70013 78.3952 9.90001 79.3912 9.90001V7.90001ZM77.6448 7.51109C77.1906 7.25601 76.8455 6.89808 76.5971 6.41415L74.8178 7.32726C75.2415 8.15311 75.8615 8.80337 76.6654 9.25488L77.6448 7.51109ZM76.5971 6.41415C76.3496 5.93173 76.2034 5.30781 76.2034 4.50534H74.2034C74.2034 5.54691 74.3932 6.4999 74.8178 7.32726L76.5971 6.41415ZM76.2034 4.50534C76.2034 3.70287 76.3496 3.07895 76.5971 2.59653L74.8178 1.68342C74.3932 2.51078 74.2034 3.46377 74.2034 4.50534H76.2034ZM76.5971 2.59653C76.8445 2.11458 77.1868 1.76355 77.6356 1.51759L76.6746 -0.236357C75.8654 0.207048 75.2426 0.855591 74.8178 1.68342L76.5971 2.59653ZM77.6448 1.51251C78.0977 1.25815 78.6677 1.11067 79.3912 1.11067V-0.889327C78.3913 -0.889327 77.4706 -0.683506 76.6654 -0.231276L77.6448 1.51251ZM79.3912 0.855614C78.8135 0.855614 78.2549 0.996253 77.7725 1.3325L78.916 2.9733C79.0023 2.91317 79.1417 2.85561 79.3912 2.85561V0.855614ZM77.7725 1.3325C77.2868 1.67103 76.9615 2.15272 76.76 2.69811L78.636 3.39141C78.7274 3.14403 78.833 3.03115 78.916 2.9733L77.7725 1.3325ZM76.7625 2.69136C76.5597 3.22832 76.4782 3.84467 76.4782 4.50534H78.4782C78.4782 3.99409 78.5433 3.63673 78.6335 3.39816L76.7625 2.69136ZM76.4782 4.50534C76.4782 5.1606 76.5605 5.77278 76.76 6.31257L78.636 5.61927C78.5425 5.3663 78.4782 5.00475 78.4782 4.50534H76.4782ZM76.76 6.31257C76.9615 6.85796 77.2868 7.33965 77.7725 7.67818L78.916 6.03738C78.833 5.97953 78.7274 5.86665 78.636 5.61927L76.76 6.31257ZM77.7725 7.67818C78.2549 8.01443 78.8135 8.15507 79.3912 8.15507V6.15507C79.1417 6.15507 79.0023 6.09751 78.916 6.03738L77.7725 7.67818ZM79.3912 8.15507C79.9678 8.15507 80.5289 8.01482 81.0089 7.6698L79.8416 6.04576C79.7702 6.09712 79.6419 6.15507 79.3912 6.15507V8.15507ZM80.997 7.67818C81.4828 7.33965 81.808 6.85796 82.0095 6.31257L80.1335 5.61927C80.0421 5.86665 79.9365 5.97953 79.8535 6.03738L80.997 7.67818ZM82.0095 6.31257C82.209 5.77278 82.2913 5.1606 82.2913 4.50534H80.2913C80.2913 5.00475 80.227 5.3663 80.1335 5.61927L82.0095 6.31257ZM82.2913 4.50534C82.2913 3.84467 82.2099 3.22832 82.007 2.69136L80.1361 3.39816C80.2262 3.63673 80.2913 3.99409 80.2913 4.50534H82.2913ZM82.0095 2.69811C81.808 2.15272 81.4828 1.67103 80.997 1.3325L79.8535 2.9733C79.9365 3.03115 80.0421 3.14403 80.1335 3.39141L82.0095 2.69811ZM81.0089 1.34089C80.5289 0.995863 79.9678 0.855614 79.3912 0.855614V2.85561C79.6419 2.85561 79.7702 2.91356 79.8416 2.96492L81.0089 1.34089ZM90.7954 0.575991L90.3804 1.48581V1.48581L90.7954 0.575991ZM91.92 1.5454L91.0671 2.06756V2.06756L91.92 1.5454ZM91.92 4.62167L91.0671 4.09951V4.09952L91.92 4.62167ZM90.7954 5.59108L90.3804 4.68126L90.7954 5.59108ZM87.3185 5.92714V4.92714H86.3185V5.92714H87.3185ZM87.3185 8.77075V9.77075H88.3185V8.77075H87.3185ZM85.0953 8.77075H84.0953V9.77075H85.0953V8.77075ZM85.0953 0.239928V-0.760072H84.0953V0.239928H85.0953ZM89.7097 3.97539L90.3414 4.75064L90.3444 4.74812L89.7097 3.97539ZM89.7097 2.2046L89.0612 2.96585L89.0763 2.97869L89.0919 2.99092L89.7097 2.2046ZM87.3185 1.90732V0.907316H86.3185V1.90732H87.3185ZM87.3185 4.25976H86.3185V5.25976H87.3185V4.25976ZM89.0117 1.23993C89.6068 1.23993 90.0518 1.3359 90.3804 1.48581L91.2104 -0.333828C90.5567 -0.632006 89.8126 -0.760072 89.0117 -0.760072V1.23993ZM90.3804 1.48581C90.7074 1.63496 90.9221 1.83067 91.0671 2.06756L92.7728 1.02325C92.4008 0.415665 91.8658 -0.0348992 91.2104 -0.333828L90.3804 1.48581ZM91.0671 2.06756C91.2103 2.30147 91.3077 2.62433 91.3077 3.08354H93.3077C93.3077 2.33636 93.1466 1.6338 92.7728 1.02325L91.0671 2.06756ZM91.3077 3.08354C91.3077 3.54274 91.2103 3.8656 91.0671 4.09951L92.7728 5.14382C93.1466 4.53328 93.3077 3.83071 93.3077 3.08354H91.3077ZM91.0671 4.09952C90.9221 4.3364 90.7074 4.53211 90.3804 4.68126L91.2104 6.5009C91.8658 6.20197 92.4008 5.75141 92.7728 5.14382L91.0671 4.09952ZM90.3804 4.68126C90.0518 4.83117 89.6068 4.92714 89.0117 4.92714V6.92714C89.8126 6.92714 90.5567 6.79908 91.2104 6.5009L90.3804 4.68126ZM89.0117 4.92714H87.3185V6.92714H89.0117V4.92714ZM86.3185 5.92714V8.77075H88.3185V5.92714H86.3185ZM87.3185 7.77075H85.0953V9.77075H87.3185V7.77075ZM86.0953 8.77075V0.239928H84.0953V8.77075H86.0953ZM85.0953 1.23993H89.0117V-0.760072H85.0953V1.23993ZM88.6627 5.25976C89.2382 5.25976 89.8553 5.14666 90.3414 4.75063L89.078 3.20016C89.0901 3.1903 89.0779 3.20555 89.0114 3.22363C88.9426 3.24229 88.8308 3.25976 88.6627 3.25976V5.25976ZM90.3444 4.74812C90.877 4.31064 91.0716 3.69162 91.0716 3.08354H89.0716C89.0716 3.18222 89.0564 3.22308 89.0545 3.22777C89.0537 3.22968 89.0553 3.22548 89.0605 3.21833C89.0658 3.21107 89.0714 3.20561 89.075 3.20267L90.3444 4.74812ZM91.0716 3.08354C91.0716 2.47769 90.8775 1.85042 90.3275 1.41828L89.0919 2.99092C89.0848 2.98537 89.076 2.97685 89.068 2.96617C89.0601 2.95563 89.0568 2.94813 89.0564 2.94727C89.0563 2.9468 89.0716 2.98431 89.0716 3.08354H91.0716ZM90.3582 1.44336C89.8708 1.02824 89.2465 0.907316 88.6627 0.907316V2.90732C89.0096 2.90732 89.0832 2.98459 89.0612 2.96585L90.3582 1.44336ZM88.6627 0.907316H87.3185V2.90732H88.6627V0.907316ZM86.3185 1.90732V4.25976H88.3185V1.90732H86.3185ZM87.3185 5.25976H88.6627V3.25976H87.3185V5.25976ZM93.7291 8.77075H92.7291V9.77075H93.7291V8.77075ZM93.7291 0.239928V-0.760072H92.7291V0.239928H93.7291ZM100.373 0.239928H101.373V-0.760072H100.373V0.239928ZM100.373 1.95902V2.95902H101.373V1.95902H100.373ZM95.9523 1.95902V0.959018H94.9523V1.95902H95.9523ZM95.9523 3.69103H94.9523V4.69103H95.9523V3.69103ZM99.468 3.69103H100.468V2.69103H99.468V3.69103ZM99.468 5.30672V6.30672H100.468V5.30672H99.468ZM95.9523 5.30672V4.30672H94.9523V5.30672H95.9523ZM95.9523 7.05166H94.9523V8.05166H95.9523V7.05166ZM100.541 7.05166H101.541V6.05166H100.541V7.05166ZM100.541 8.77075V9.77075H101.541V8.77075H100.541ZM94.7291 8.77075V0.239928H92.7291V8.77075H94.7291ZM93.7291 1.23993H100.373V-0.760072H93.7291V1.23993ZM99.3728 0.239928V1.95902H101.373V0.239928H99.3728ZM100.373 0.959018H95.9523V2.95902H100.373V0.959018ZM94.9523 1.95902V3.69103H96.9523V1.95902H94.9523ZM95.9523 4.69103H99.468V2.69103H95.9523V4.69103ZM98.468 3.69103V5.30672H100.468V3.69103H98.468ZM99.468 4.30672H95.9523V6.30672H99.468V4.30672ZM94.9523 5.30672V7.05166H96.9523V5.30672H94.9523ZM95.9523 8.05166H100.541V6.05166H95.9523V8.05166ZM99.5409 7.05166V8.77075H101.541V7.05166H99.5409ZM100.541 7.77075H93.7291V9.77075H100.541V7.77075ZM108.32 0.963755L107.667 1.72136L107.674 1.72672L107.68 1.73198L108.32 0.963755ZM105.968 5.53938V4.53938H105.706L105.477 4.6678L105.968 5.53938ZM105.761 5.65571V6.65571H106.023L106.251 6.52728L105.761 5.65571ZM104.068 5.65571V4.65571H103.068V5.65571H104.068ZM104.068 8.77075V9.77075H105.068V8.77075H104.068ZM101.883 8.77075H100.883V9.77075H101.883V8.77075ZM101.883 0.239928V-0.760072H100.883V0.239928H101.883ZM106.614 3.82029L105.989 3.03942L105.989 3.03942L106.614 3.82029ZM106.614 2.17875L107.239 1.39788V1.39788L106.614 2.17875ZM104.068 1.92024V0.920242H103.068V1.92024H104.068ZM104.068 4.0788H103.068V5.0788H104.068V4.0788ZM106.95 4.54412L107.79 4.00193L107.4 3.39628L106.701 3.57553L106.95 4.54412ZM109.677 8.77075V9.77075H111.513L110.518 8.22857L109.677 8.77075ZM107.222 8.77075L106.358 9.27555L106.648 9.77075H107.222V8.77075ZM105.037 5.03528L104.788 4.0667L103.505 4.39623L104.174 5.54008L105.037 5.03528ZM105.955 1.23993C106.822 1.23993 107.347 1.44528 107.667 1.72136L108.973 0.206147C108.173 -0.482873 107.121 -0.760072 105.955 -0.760072V1.23993ZM107.68 1.73198C108.003 2.00107 108.173 2.34382 108.173 2.8638H110.173C110.173 1.79825 109.775 0.874308 108.96 0.195534L107.68 1.73198ZM108.173 2.8638C108.173 3.5015 107.98 3.85163 107.701 4.07931L108.965 5.62935C109.806 4.94363 110.173 3.96674 110.173 2.8638H108.173ZM107.701 4.07931C107.38 4.3413 106.847 4.53938 105.968 4.53938V6.53938C107.123 6.53938 108.166 6.28076 108.965 5.62935L107.701 4.07931ZM105.477 4.6678L105.271 4.78413L106.251 6.52728L106.458 6.41096L105.477 4.6678ZM105.761 4.65571H104.068V6.65571H105.761V4.65571ZM103.068 5.65571V8.77075H105.068V5.65571H103.068ZM104.068 7.77075H101.883V9.77075H104.068V7.77075ZM102.883 8.77075V0.239928H100.883V8.77075H102.883ZM101.883 1.23993H105.955V-0.760072H101.883V1.23993ZM105.645 5.0788C106.182 5.0788 106.771 4.97563 107.239 4.60116L105.989 3.03942C106.01 3.02272 106.008 3.03314 105.952 3.04794C105.895 3.06325 105.797 3.0788 105.645 3.0788V5.0788ZM107.239 4.60116C107.772 4.17472 107.937 3.55542 107.937 2.99306H105.937C105.937 3.09153 105.923 3.12596 105.925 3.12038C105.926 3.11644 105.932 3.10375 105.944 3.08672C105.957 3.06937 105.972 3.05298 105.989 3.03942L107.239 4.60116ZM107.937 2.99306C107.937 2.43019 107.767 1.82013 107.239 1.39788L105.989 2.95962C105.974 2.94738 105.959 2.93209 105.947 2.91522C105.935 2.89862 105.929 2.88566 105.927 2.88043C105.923 2.87187 105.937 2.90153 105.937 2.99306H107.937ZM107.239 1.39788C106.771 1.02341 106.182 0.920242 105.645 0.920242V2.92024C105.797 2.92024 105.895 2.93579 105.952 2.9511C106.008 2.96591 106.01 2.97632 105.989 2.95962L107.239 1.39788ZM105.645 0.920242H104.068V2.92024H105.645V0.920242ZM103.068 1.92024V4.0788H105.068V1.92024H103.068ZM104.068 5.0788H105.645V3.0788H104.068V5.0788ZM106.11 5.0863L108.837 9.31294L110.518 8.22857L107.79 4.00193L106.11 5.0863ZM109.677 7.77075H107.222V9.77075H109.677V7.77075ZM108.085 8.26595L105.9 4.53049L104.174 5.54008L106.358 9.27555L108.085 8.26595ZM105.286 6.00387L107.199 5.5127L106.701 3.57553L104.788 4.0667L105.286 6.00387ZM117.867 0.239928H118.867V-0.760072H117.867V0.239928ZM117.867 1.95902V2.95902H118.867V1.95902H117.867ZM115.088 1.95902V0.959018H114.088V1.95902H115.088ZM115.088 8.77075V9.77075H116.088V8.77075H115.088ZM112.865 8.77075H111.865V9.77075H112.865V8.77075ZM112.865 1.95902H113.865V0.959018H112.865V1.95902ZM110.073 1.95902H109.073V2.95902H110.073V1.95902ZM110.073 0.239928V-0.760072H109.073V0.239928H110.073ZM116.867 0.239928V1.95902H118.867V0.239928H116.867ZM117.867 0.959018H115.088V2.95902H117.867V0.959018ZM114.088 1.95902V8.77075H116.088V1.95902H114.088ZM115.088 7.77075H112.865V9.77075H115.088V7.77075ZM113.865 8.77075V1.95902H111.865V8.77075H113.865ZM112.865 0.959018H110.073V2.95902H112.865V0.959018ZM111.073 1.95902V0.239928H109.073V1.95902H111.073ZM110.073 1.23993H117.867V-0.760072H110.073V1.23993ZM126.33 0.239928L127.204 0.725925L128.031 -0.760072H126.33V0.239928ZM123.319 5.65571L122.445 5.16971L122.319 5.39637V5.65571H123.319ZM123.319 8.77075V9.77075H124.319V8.77075H123.319ZM121.096 8.77075H120.096V9.77075H121.096V8.77075ZM121.096 5.65571H122.096V5.39637L121.969 5.16971L121.096 5.65571ZM118.084 0.239928V-0.760072H116.384L117.21 0.725925L118.084 0.239928ZM120.385 0.239928L121.274 -0.217087L120.995 -0.760072H120.385V0.239928ZM121.587 2.57944L122.5 2.17253L122.489 2.14715L122.476 2.12243L121.587 2.57944ZM122.22 4.00125L121.307 4.40815L122.211 6.43812L123.13 4.41505L122.22 4.00125ZM122.866 2.57944L121.977 2.12243L121.966 2.14378L121.956 2.16564L122.866 2.57944ZM124.068 0.239928V-0.760072H123.458L123.179 -0.217087L124.068 0.239928ZM125.456 -0.246069L122.445 5.16971L124.193 6.14171L127.204 0.725925L125.456 -0.246069ZM122.319 5.65571V8.77075H124.319V5.65571H122.319ZM123.319 7.77075H121.096V9.77075H123.319V7.77075ZM122.096 8.77075V5.65571H120.096V8.77075H122.096ZM121.969 5.16971L118.958 -0.246069L117.21 0.725925L120.222 6.14171L121.969 5.16971ZM118.084 1.23993H120.385V-0.760072H118.084V1.23993ZM119.495 0.696943L120.697 3.03646L122.476 2.12243L121.274 -0.217087L119.495 0.696943ZM120.673 2.98635L121.307 4.40815L123.133 3.59434L122.5 2.17253L120.673 2.98635ZM123.13 4.41505L123.777 2.99324L121.956 2.16564L121.31 3.58744L123.13 4.41505ZM123.756 3.03646L124.958 0.696943L123.179 -0.217087L121.977 2.12243L123.756 3.03646ZM124.068 1.23993H126.33V-0.760072H124.068V1.23993ZM136.167 0.485512L135.784 1.40937L135.792 1.41264L135.8 1.41579L136.167 0.485512ZM137.757 1.55833L138.558 2.15717L139.062 1.48301L138.484 0.871316L137.757 1.55833ZM136.684 2.99306L135.961 3.68392L136.777 4.53817L137.485 3.5919L136.684 2.99306ZM135.482 2.12705L135.057 3.03229L135.068 3.03746L135.079 3.04237L135.482 2.12705ZM133.259 1.93317L132.93 0.988669V0.98867L133.259 1.93317ZM132.832 2.21753L133.646 2.79877V2.79877L132.832 2.21753ZM132.949 3.09646L132.329 3.88134L132.352 3.89918L132.375 3.91569L132.949 3.09646ZM133.776 3.40667L133.554 4.38181L133.556 4.38224L133.776 3.40667ZM135.211 3.72981L135.437 2.75573L135.43 2.75425L135.211 3.72981ZM137.214 7.64623L138.014 8.24626L138.02 8.23831L137.214 7.64623ZM135.934 8.5898L136.291 9.52437L136.303 9.51929L135.934 8.5898ZM132.445 8.71905L132.202 9.68919L132.21 9.6911L132.217 9.69289L132.445 8.71905ZM131.049 8.17618L130.558 9.04776L131.049 8.17618ZM130.002 7.3748L129.191 6.78957L128.707 7.45959L129.274 8.06081L130.002 7.3748ZM131.074 5.88837L131.832 5.23543L131.005 4.27609L130.264 5.30313L131.074 5.88837ZM131.863 6.56049L131.325 7.40319L131.338 7.41183L131.352 7.42003L131.863 6.56049ZM132.897 7.01289L132.608 7.97012L132.614 7.9719L132.897 7.01289ZM134.797 7.09044L134.517 6.13037L134.506 6.13376L134.797 7.09044ZM135.198 5.94007L134.491 6.64718L134.503 6.65936L134.515 6.67113L135.198 5.94007ZM134.461 5.61693L134.693 4.64413L134.685 4.64228L134.677 4.64056L134.461 5.61693ZM132.884 5.26794L132.658 6.24209L132.668 6.24432L132.884 5.26794ZM131.592 4.82848L131.136 5.71873L131.148 5.72501L131.161 5.73096L131.592 4.82848ZM130.713 4.0788L129.884 4.6387L129.891 4.64919L130.713 4.0788ZM130.829 1.46785L131.645 2.04589L131.65 2.03793L130.829 1.46785ZM132.096 0.472587L131.695 -0.443571V-0.44357L132.096 0.472587ZM134.073 1.11067C134.762 1.11067 135.326 1.21927 135.784 1.40937L136.55 -0.438344C135.802 -0.748035 134.97 -0.889327 134.073 -0.889327V1.11067ZM135.8 1.41579C136.277 1.60377 136.684 1.87878 137.03 2.24534L138.484 0.871316C137.934 0.290002 137.281 -0.150197 136.534 -0.444761L135.8 1.41579ZM136.956 0.959483L135.883 2.39421L137.485 3.5919L138.558 2.15717L136.956 0.959483ZM137.407 2.3022C136.958 1.83245 136.452 1.4612 135.885 1.21173L135.079 3.04237C135.374 3.17204 135.669 3.37813 135.961 3.68392L137.407 2.3022ZM135.907 1.22181C135.332 0.951782 134.7 0.829763 134.034 0.829763V2.82976C134.454 2.82976 134.788 2.90594 135.057 3.03229L135.907 1.22181ZM134.034 0.829763C133.656 0.829763 133.274 0.869123 132.93 0.988669L133.587 2.87766C133.64 2.85934 133.776 2.82976 134.034 2.82976V0.829763ZM132.93 0.98867C132.615 1.09832 132.266 1.29045 132.019 1.63629L133.646 2.79877C133.609 2.85088 133.573 2.8783 133.558 2.88801C133.545 2.89672 133.551 2.89041 133.587 2.87766L132.93 0.98867ZM132.019 1.63629C131.805 1.93468 131.703 2.27787 131.703 2.63114H133.703C133.703 2.64729 133.701 2.6752 133.69 2.70969C133.679 2.7446 133.663 2.77512 133.646 2.79877L132.019 1.63629ZM131.703 2.63114C131.703 3.16725 131.966 3.59512 132.329 3.88134L133.568 2.31158C133.576 2.31726 133.614 2.34955 133.649 2.41643C133.686 2.48742 133.703 2.56431 133.703 2.63114H131.703ZM132.375 3.91569C132.709 4.14925 133.138 4.28711 133.554 4.38181L133.998 2.43154C133.839 2.39549 133.721 2.35994 133.636 2.32816C133.548 2.2952 133.518 2.27442 133.522 2.27723L132.375 3.91569ZM133.556 4.38224L134.991 4.70537L135.43 2.75425L133.996 2.43111L133.556 4.38224ZM134.984 4.70387C135.757 4.88338 136.182 5.11646 136.394 5.31846L137.776 3.87318C137.195 3.31688 136.37 2.97262 135.437 2.75575L134.984 4.70387ZM136.394 5.31846C136.563 5.48069 136.679 5.70819 136.679 6.1081H138.679C138.679 5.24993 138.399 4.46925 137.776 3.87318L136.394 5.31846ZM136.679 6.1081C136.679 6.53177 136.574 6.82872 136.408 7.05416L138.02 8.23831C138.475 7.61928 138.679 6.89081 138.679 6.1081H136.679ZM136.414 7.04624C136.228 7.29394 135.96 7.50384 135.566 7.6603L136.303 9.51929C136.995 9.2449 137.579 8.82576 138.014 8.24623L136.414 7.04624ZM135.578 7.65531C135.17 7.81105 134.673 7.90001 134.073 7.90001V9.90001C134.869 9.90001 135.614 9.78216 136.29 9.52428L135.578 7.65531ZM134.073 7.90001C133.576 7.90001 133.109 7.84728 132.672 7.74521L132.217 9.69289C132.814 9.8321 133.433 9.90001 134.073 9.90001V7.90001ZM132.687 7.74891C132.246 7.63869 131.866 7.48851 131.539 7.3046L130.558 9.04776C131.059 9.32917 131.609 9.5409 132.202 9.68919L132.687 7.74891ZM131.539 7.3046C131.201 7.11443 130.935 6.90714 130.729 6.68879L129.274 8.06081C129.637 8.44565 130.069 8.77262 130.558 9.04776L131.539 7.3046ZM130.813 7.96003L131.885 6.4736L130.264 5.30313L129.191 6.78957L130.813 7.96003ZM130.317 6.54131C130.603 6.8727 130.942 7.15869 131.325 7.40319L132.401 5.7178C132.164 5.56592 131.977 5.40382 131.832 5.23543L130.317 6.54131ZM131.352 7.42003C131.743 7.65279 132.163 7.83564 132.608 7.9701L133.186 6.05567C132.89 5.96609 132.62 5.84734 132.374 5.70096L131.352 7.42003ZM132.614 7.9719C133.083 8.11057 133.562 8.18092 134.047 8.18092V6.18092C133.757 6.18092 133.469 6.13925 133.18 6.05387L132.614 7.9719ZM134.047 8.18092C134.407 8.18092 134.763 8.14599 135.088 8.04711L134.506 6.13376C134.434 6.15553 134.291 6.18092 134.047 6.18092V8.18092ZM135.077 8.05044C135.406 7.95458 135.769 7.77589 136.036 7.43682L134.463 6.20118C134.501 6.15279 134.537 6.12822 134.551 6.11985C134.563 6.11245 134.556 6.1191 134.517 6.13044L135.077 8.05044ZM136.036 7.43682C136.279 7.12774 136.392 6.76414 136.392 6.39246H134.392C134.392 6.37674 134.394 6.34552 134.407 6.30566C134.421 6.26503 134.441 6.22913 134.463 6.20118L136.036 7.43682ZM136.392 6.39246C136.392 5.9417 136.217 5.52375 135.88 5.20901L134.515 6.67113C134.487 6.64418 134.451 6.59944 134.424 6.53757C134.398 6.47622 134.392 6.4234 134.392 6.39246H136.392ZM135.905 5.23296C135.567 4.89472 135.083 4.73707 134.693 4.64413L134.229 6.58974C134.373 6.62385 134.463 6.65555 134.515 6.67813C134.54 6.68893 134.548 6.69447 134.545 6.69242C134.542 6.69057 134.52 6.67683 134.491 6.64718L135.905 5.23296ZM134.677 4.64056L133.1 4.29157L132.668 6.24432L134.245 6.59331L134.677 4.64056ZM133.11 4.29385C132.686 4.19538 132.326 4.07077 132.022 3.926L131.161 5.73096C131.616 5.9481 132.117 6.11646 132.658 6.24204L133.11 4.29385ZM132.047 3.93823C131.808 3.81577 131.646 3.67014 131.534 3.5084L129.891 4.64919C130.21 5.10788 130.634 5.46204 131.136 5.71873L132.047 3.93823ZM131.541 3.51894C131.461 3.40025 131.389 3.21065 131.389 2.88965H129.389C129.389 3.51653 129.533 4.11969 129.884 4.63866L131.541 3.51894ZM131.389 2.88965C131.389 2.5506 131.478 2.28107 131.645 2.04587L130.013 0.889832C129.594 1.48186 129.389 2.1602 129.389 2.88965H131.389ZM131.65 2.03793C131.821 1.7922 132.085 1.56872 132.496 1.38874L131.695 -0.44357C131.003 -0.140994 130.423 0.299038 130.007 0.897768L131.65 2.03793ZM132.496 1.38874C132.892 1.21569 133.408 1.11067 134.073 1.11067V-0.889327C133.205 -0.889327 132.402 -0.753073 131.695 -0.443571L132.496 1.38874ZM145.118 0.640618L144.624 1.5096L144.631 1.51366L144.638 1.51759L145.118 0.640618ZM146.566 2.13998L147.456 1.68342V1.68342L146.566 2.13998ZM146.566 6.8707L147.456 7.32726L146.566 6.8707ZM145.118 8.38299L145.604 9.25715L145.608 9.25488L145.118 8.38299ZM140.659 8.38299L140.169 9.25493L140.179 9.25996L140.659 8.38299ZM139.212 6.8707L140.101 6.41415L139.212 6.8707ZM139.212 2.13998L140.101 2.59653L139.212 2.13998ZM140.659 0.640618L141.14 1.51764L141.149 1.51251L140.659 0.640618ZM141.848 2.1529L141.277 1.3325L141.848 2.1529ZM141.202 3.04476L142.138 3.39817L142.14 3.39141L141.202 3.04476ZM141.202 5.96592L140.264 6.31257L141.202 5.96592ZM143.929 6.85778L143.358 6.03738L143.352 6.04153L143.346 6.04576L143.929 6.85778ZM144.576 5.96592L143.638 5.61927L144.576 5.96592ZM144.576 3.04476L143.638 3.39142L143.64 3.39816L144.576 3.04476ZM143.929 2.1529L143.346 2.96492L143.352 2.96915L143.358 2.9733L143.929 2.1529ZM142.895 1.11067C143.619 1.11067 144.182 1.25831 144.624 1.5096L145.613 -0.228366C144.814 -0.683671 143.895 -0.889327 142.895 -0.889327V1.11067ZM144.638 1.51759C145.087 1.76355 145.429 2.11458 145.676 2.59653L147.456 1.68342C147.031 0.855591 146.408 0.207048 145.599 -0.236358L144.638 1.51759ZM145.676 2.59653C145.924 3.07895 146.07 3.70287 146.07 4.50534H148.07C148.07 3.46377 147.88 2.51078 147.456 1.68342L145.676 2.59653ZM146.07 4.50534C146.07 5.30781 145.924 5.93173 145.676 6.41415L147.456 7.32726C147.88 6.4999 148.07 5.54691 148.07 4.50534H146.07ZM145.676 6.41415C145.428 6.89808 145.083 7.25601 144.629 7.51109L145.608 9.25488C146.412 8.80337 147.032 8.15311 147.456 7.32726L145.676 6.41415ZM144.633 7.50883C144.19 7.75503 143.623 7.90001 142.895 7.90001V9.90001C143.891 9.90001 144.806 9.7003 145.604 9.25714L144.633 7.50883ZM142.895 7.90001C142.168 7.90001 141.594 7.7552 141.14 7.50601L140.179 9.25996C140.982 9.70013 141.899 9.90001 142.895 9.90001V7.90001ZM141.149 7.51109C140.695 7.25601 140.35 6.89808 140.101 6.41415L138.322 7.32726C138.746 8.15311 139.366 8.80337 140.169 9.25488L141.149 7.51109ZM140.101 6.41415C139.854 5.93173 139.707 5.30781 139.707 4.50534H137.707C137.707 5.54691 137.897 6.4999 138.322 7.32726L140.101 6.41415ZM139.707 4.50534C139.707 3.70287 139.854 3.07895 140.101 2.59653L138.322 1.68342C137.897 2.51078 137.707 3.46377 137.707 4.50534H139.707ZM140.101 2.59653C140.349 2.11458 140.691 1.76355 141.14 1.51759L140.179 -0.236357C139.369 0.207048 138.747 0.855591 138.322 1.68342L140.101 2.59653ZM141.149 1.51251C141.602 1.25815 142.172 1.11067 142.895 1.11067V-0.889327C141.895 -0.889327 140.975 -0.683506 140.169 -0.231276L141.149 1.51251ZM142.895 0.855614C142.318 0.855614 141.759 0.996253 141.277 1.3325L142.42 2.9733C142.506 2.91317 142.646 2.85561 142.895 2.85561V0.855614ZM141.277 1.3325C140.791 1.67103 140.466 2.15272 140.264 2.69811L142.14 3.39141C142.231 3.14403 142.337 3.03115 142.42 2.9733L141.277 1.3325ZM140.267 2.69136C140.064 3.22832 139.982 3.84467 139.982 4.50534H141.982C141.982 3.99409 142.047 3.63673 142.137 3.39816L140.267 2.69136ZM139.982 4.50534C139.982 5.1606 140.065 5.77278 140.264 6.31257L142.14 5.61927C142.047 5.3663 141.982 5.00475 141.982 4.50534H139.982ZM140.264 6.31257C140.466 6.85796 140.791 7.33965 141.277 7.67818L142.42 6.03738C142.337 5.97953 142.231 5.86665 142.14 5.61927L140.264 6.31257ZM141.277 7.67818C141.759 8.01443 142.318 8.15507 142.895 8.15507V6.15507C142.646 6.15507 142.506 6.09751 142.42 6.03738L141.277 7.67818ZM142.895 8.15507C143.472 8.15507 144.033 8.01482 144.513 7.6698L143.346 6.04576C143.274 6.09712 143.146 6.15507 142.895 6.15507V8.15507ZM144.501 7.67818C144.987 7.33965 145.312 6.85796 145.514 6.31257L143.638 5.61927C143.546 5.86665 143.441 5.97953 143.358 6.03738L144.501 7.67818ZM145.514 6.31257C145.713 5.77278 145.795 5.1606 145.795 4.50534H143.795C143.795 5.00475 143.731 5.3663 143.638 5.61927L145.514 6.31257ZM145.795 4.50534C145.795 3.84467 145.714 3.22832 145.511 2.69136L143.64 3.39816C143.73 3.63673 143.795 3.99409 143.795 4.50534H145.795ZM145.514 2.69811C145.312 2.15272 144.987 1.67103 144.501 1.3325L143.358 2.9733C143.441 3.03115 143.546 3.14403 143.638 3.39141L145.514 2.69811ZM144.513 1.34089C144.033 0.995863 143.472 0.855614 142.895 0.855614V2.85561C143.146 2.85561 143.274 2.91356 143.346 2.96492L144.513 1.34089ZM156.057 0.239928H157.057V-0.760072H156.057V0.239928ZM155.088 8.00815L155.77 8.73953L155.77 8.7392L155.088 8.00815ZM149.401 8.00815L148.718 8.73922L148.724 8.74408L149.401 8.00815ZM148.431 0.239928V-0.760072H147.431V0.239928H148.431ZM150.667 0.239928H151.667V-0.760072H150.667V0.239928ZM151.055 6.70267L150.296 7.35347L150.301 7.35963L150.307 7.36571L151.055 6.70267ZM153.433 6.70267L152.685 6.03964L152.68 6.04572L152.674 6.05188L153.433 6.70267ZM153.834 0.239928V-0.760072H152.834V0.239928H153.834ZM155.057 0.239928V5.29379H157.057V0.239928H155.057ZM155.057 5.29379C155.057 6.32768 154.784 6.92424 154.406 7.27709L155.77 8.7392C156.685 7.88567 157.057 6.67267 157.057 5.29379H155.057ZM154.406 7.27676C154.021 7.63539 153.361 7.90001 152.244 7.90001V9.90001C153.644 9.90001 154.879 9.57005 155.77 8.73953L154.406 7.27676ZM152.244 7.90001C151.14 7.90001 150.474 7.63691 150.078 7.27222L148.724 8.74408C149.62 9.56853 150.85 9.90001 152.244 9.90001V7.90001ZM150.083 7.27709C149.705 6.92424 149.431 6.32768 149.431 5.29379H147.431C147.431 6.67267 147.804 7.88567 148.718 8.7392L150.083 7.27709ZM149.431 5.29379V0.239928H147.431V5.29379H149.431ZM148.431 1.23993H150.667V-0.760072H148.431V1.23993ZM149.667 0.239928V5.33257H151.667V0.239928H149.667ZM149.667 5.33257C149.667 6.05976 149.817 6.79496 150.296 7.35347L151.814 6.05188C151.776 6.0072 151.667 5.829 151.667 5.33257H149.667ZM150.307 7.36571C150.817 7.94232 151.525 8.15507 152.244 8.15507V6.15507C151.912 6.15507 151.827 6.06622 151.804 6.03964L150.307 7.36571ZM152.244 8.15507C152.964 8.15507 153.684 7.9464 154.193 7.35347L152.674 6.05188C152.665 6.06214 152.593 6.15507 152.244 6.15507V8.15507ZM154.182 7.36571C154.677 6.80669 154.834 6.06628 154.834 5.33257H152.834C152.834 5.82248 152.724 5.99547 152.685 6.03964L154.182 7.36571ZM154.834 5.33257V0.239928H152.834V5.33257H154.834ZM153.834 1.23993H156.057V-0.760072H153.834V1.23993ZM159.999 7.05166H158.999V8.05166H159.999V7.05166ZM164.277 7.05166H165.277V6.05166H164.277V7.05166ZM164.277 8.77075V9.77075H165.277V8.77075H164.277ZM157.776 8.77075H156.776V9.77075H157.776V8.77075ZM157.776 0.239928V-0.760072H156.776V0.239928H157.776ZM159.999 0.239928H160.999V-0.760072H159.999V0.239928ZM159.999 8.05166H164.277V6.05166H159.999V8.05166ZM163.277 7.05166V8.77075H165.277V7.05166H163.277ZM164.277 7.77075H157.776V9.77075H164.277V7.77075ZM158.776 8.77075V0.239928H156.776V8.77075H158.776ZM157.776 1.23993H159.999V-0.760072H157.776V1.23993ZM158.999 0.239928V7.05166H160.999V0.239928H158.999ZM172.934 0.239928H173.934V-0.760072H172.934V0.239928ZM171.964 8.00815L172.646 8.73953L172.647 8.7392L171.964 8.00815ZM166.277 8.00815L165.595 8.73922L165.6 8.74408L166.277 8.00815ZM165.308 0.239928V-0.760072H164.308V0.239928H165.308ZM167.544 0.239928H168.544V-0.760072H167.544V0.239928ZM167.932 6.70267L167.172 7.35347L167.178 7.35963L167.183 7.36571L167.932 6.70267ZM170.31 6.70267L169.561 6.03964L169.556 6.04572L169.551 6.05188L170.31 6.70267ZM170.711 0.239928V-0.760072H169.711V0.239928H170.711ZM171.934 0.239928V5.29379H173.934V0.239928H171.934ZM171.934 5.29379C171.934 6.32768 171.66 6.92424 171.282 7.27709L172.647 8.7392C173.561 7.88567 173.934 6.67267 173.934 5.29379H171.934ZM171.282 7.27676C170.898 7.63539 170.237 7.90001 169.121 7.90001V9.90001C170.521 9.90001 171.756 9.57005 172.646 8.73953L171.282 7.27676ZM169.121 7.90001C168.016 7.90001 167.351 7.63691 166.954 7.27222L165.6 8.74408C166.496 9.56853 167.726 9.90001 169.121 9.90001V7.90001ZM166.959 7.27709C166.581 6.92424 166.308 6.32768 166.308 5.29379H164.308C164.308 6.67267 164.68 7.88567 165.595 8.7392L166.959 7.27709ZM166.308 5.29379V0.239928H164.308V5.29379H166.308ZM165.308 1.23993H167.544V-0.760072H165.308V1.23993ZM166.544 0.239928V5.33257H168.544V0.239928H166.544ZM166.544 5.33257C166.544 6.05976 166.694 6.79496 167.172 7.35347L168.691 6.05188C168.652 6.0072 168.544 5.829 168.544 5.33257H166.544ZM167.183 7.36571C167.694 7.94232 168.401 8.15507 169.121 8.15507V6.15507C168.789 6.15507 168.704 6.06622 168.68 6.03964L167.183 7.36571ZM169.121 8.15507C169.841 8.15507 170.561 7.9464 171.069 7.35347L169.551 6.05188C169.542 6.06214 169.469 6.15507 169.121 6.15507V8.15507ZM171.058 7.36571C171.554 6.80669 171.711 6.06628 171.711 5.33257H169.711C169.711 5.82248 169.6 5.99547 169.561 6.03964L171.058 7.36571ZM171.711 5.33257V0.239928H169.711V5.33257H171.711ZM170.711 1.23993H172.934V-0.760072H170.711V1.23993ZM181.826 0.239928H182.826V-0.760072H181.826V0.239928ZM181.826 1.95902V2.95902H182.826V1.95902H181.826ZM179.047 1.95902V0.959018H178.047V1.95902H179.047ZM179.047 8.77075V9.77075H180.047V8.77075H179.047ZM176.824 8.77075H175.824V9.77075H176.824V8.77075ZM176.824 1.95902H177.824V0.959018H176.824V1.95902ZM174.032 1.95902H173.032V2.95902H174.032V1.95902ZM174.032 0.239928V-0.760072H173.032V0.239928H174.032ZM180.826 0.239928V1.95902H182.826V0.239928H180.826ZM181.826 0.959018H179.047V2.95902H181.826V0.959018ZM178.047 1.95902V8.77075H180.047V1.95902H178.047ZM179.047 7.77075H176.824V9.77075H179.047V7.77075ZM177.824 8.77075V1.95902H175.824V8.77075H177.824ZM176.824 0.959018H174.032V2.95902H176.824V0.959018ZM175.032 1.95902V0.239928H173.032V1.95902H175.032ZM174.032 1.23993H181.826V-0.760072H174.032V1.23993ZM185.32 0.239928H186.32V-0.760072H185.32V0.239928ZM185.32 8.77075V9.77075H186.32V8.77075H185.32ZM183.097 8.77075H182.097V9.77075H183.097V8.77075ZM183.097 0.239928V-0.760072H182.097V0.239928H183.097ZM184.32 0.239928V8.77075H186.32V0.239928H184.32ZM185.32 7.77075H183.097V9.77075H185.32V7.77075ZM184.097 8.77075V0.239928H182.097V8.77075H184.097ZM183.097 1.23993H185.32V-0.760072H183.097V1.23993ZM193.261 0.640618L192.766 1.5096L192.773 1.51366L192.78 1.51759L193.261 0.640618ZM194.709 2.13998L195.598 1.68342V1.68342L194.709 2.13998ZM194.709 6.8707L195.598 7.32726L194.709 6.8707ZM193.261 8.38299L193.746 9.25715L193.751 9.25488L193.261 8.38299ZM188.802 8.38299L188.312 9.25493L188.321 9.25996L188.802 8.38299ZM187.354 6.8707L188.244 6.41415L187.354 6.8707ZM187.354 2.13998L188.244 2.59653L187.354 2.13998ZM188.802 0.640618L189.282 1.51764L189.291 1.51251L188.802 0.640618ZM189.991 2.1529L189.419 1.3325L189.991 2.1529ZM189.344 3.04476L190.28 3.39817L190.282 3.39141L189.344 3.04476ZM189.344 5.96592L188.406 6.31257L189.344 5.96592ZM192.072 6.85778L191.5 6.03738L191.494 6.04153L191.488 6.04576L192.072 6.85778ZM192.718 5.96592L191.78 5.61927L192.718 5.96592ZM192.718 3.04476L191.78 3.39142L191.783 3.39816L192.718 3.04476ZM192.072 2.1529L191.488 2.96492L191.494 2.96915L191.5 2.9733L192.072 2.1529ZM191.038 1.11067C191.762 1.11067 192.325 1.25831 192.766 1.5096L193.756 -0.228366C192.956 -0.683671 192.037 -0.889327 191.038 -0.889327V1.11067ZM192.78 1.51759C193.229 1.76355 193.571 2.11458 193.819 2.59653L195.598 1.68342C195.173 0.855591 194.551 0.207048 193.741 -0.236358L192.78 1.51759ZM193.819 2.59653C194.066 3.07895 194.213 3.70287 194.213 4.50534H196.213C196.213 3.46377 196.023 2.51078 195.598 1.68342L193.819 2.59653ZM194.213 4.50534C194.213 5.30781 194.066 5.93173 193.819 6.41415L195.598 7.32726C196.023 6.4999 196.213 5.54691 196.213 4.50534H194.213ZM193.819 6.41415C193.57 6.89808 193.225 7.25601 192.771 7.51109L193.751 9.25488C194.554 8.80337 195.174 8.15311 195.598 7.32726L193.819 6.41415ZM192.775 7.50883C192.332 7.75503 191.766 7.90001 191.038 7.90001V9.90001C192.033 9.90001 192.949 9.7003 193.746 9.25714L192.775 7.50883ZM191.038 7.90001C190.31 7.90001 189.737 7.7552 189.282 7.50601L188.321 9.25996C189.124 9.70013 190.042 9.90001 191.038 9.90001V7.90001ZM189.291 7.51109C188.837 7.25601 188.492 6.89808 188.244 6.41415L186.464 7.32726C186.888 8.15311 187.508 8.80337 188.312 9.25488L189.291 7.51109ZM188.244 6.41415C187.996 5.93173 187.85 5.30781 187.85 4.50534H185.85C185.85 5.54691 186.04 6.4999 186.464 7.32726L188.244 6.41415ZM187.85 4.50534C187.85 3.70287 187.996 3.07895 188.244 2.59653L186.464 1.68342C186.04 2.51078 185.85 3.46377 185.85 4.50534H187.85ZM188.244 2.59653C188.491 2.11458 188.833 1.76355 189.282 1.51759L188.321 -0.236357C187.512 0.207048 186.889 0.855591 186.464 1.68342L188.244 2.59653ZM189.291 1.51251C189.744 1.25815 190.314 1.11067 191.038 1.11067V-0.889327C190.038 -0.889327 189.117 -0.683506 188.312 -0.231276L189.291 1.51251ZM191.038 0.855614C190.46 0.855614 189.901 0.996253 189.419 1.3325L190.562 2.9733C190.649 2.91317 190.788 2.85561 191.038 2.85561V0.855614ZM189.419 1.3325C188.933 1.67103 188.608 2.15272 188.406 2.69811L190.282 3.39141C190.374 3.14403 190.479 3.03115 190.562 2.9733L189.419 1.3325ZM188.409 2.69136C188.206 3.22832 188.125 3.84467 188.125 4.50534H190.125C190.125 3.99409 190.19 3.63673 190.28 3.39816L188.409 2.69136ZM188.125 4.50534C188.125 5.1606 188.207 5.77278 188.406 6.31257L190.282 5.61927C190.189 5.3663 190.125 5.00475 190.125 4.50534H188.125ZM188.406 6.31257C188.608 6.85796 188.933 7.33965 189.419 7.67818L190.562 6.03738C190.479 5.97953 190.374 5.86665 190.282 5.61927L188.406 6.31257ZM189.419 7.67818C189.901 8.01443 190.46 8.15507 191.038 8.15507V6.15507C190.788 6.15507 190.649 6.09751 190.562 6.03738L189.419 7.67818ZM191.038 8.15507C191.614 8.15507 192.175 8.01482 192.655 7.6698L191.488 6.04576C191.417 6.09712 191.288 6.15507 191.038 6.15507V8.15507ZM192.643 7.67818C193.129 7.33965 193.454 6.85796 193.656 6.31257L191.78 5.61927C191.689 5.86665 191.583 5.97953 191.5 6.03738L192.643 7.67818ZM193.656 6.31257C193.855 5.77278 193.938 5.1606 193.938 4.50534H191.938C191.938 5.00475 191.873 5.3663 191.78 5.61927L193.656 6.31257ZM193.938 4.50534C193.938 3.84467 193.856 3.22832 193.653 2.69136L191.783 3.39816C191.873 3.63673 191.938 3.99409 191.938 4.50534H193.938ZM193.656 2.69811C193.454 2.15272 193.129 1.67103 192.643 1.3325L191.5 2.9733C191.583 3.03115 191.689 3.14403 191.78 3.39141L193.656 2.69811ZM192.655 1.34089C192.175 0.995863 191.614 0.855614 191.038 0.855614V2.85561C191.288 2.85561 191.417 2.91356 191.488 2.96492L192.655 1.34089ZM204.432 0.239928H205.432V-0.760072H204.432V0.239928ZM204.432 8.77075V9.77075H205.432V8.77075H204.432ZM201.964 8.77075L201.096 9.26872L201.385 9.77075H201.964V8.77075ZM199.314 4.15635L198.423 4.61082L198.434 4.63286L198.447 4.65432L199.314 4.15635ZM198.668 2.88965L199.558 2.43518L199.28 1.88965H198.668V2.88965ZM198.655 2.88965V1.88965H197.621L197.655 2.92242L198.655 2.88965ZM198.706 4.46656H199.706V4.45017L199.706 4.43379L198.706 4.46656ZM198.706 8.77075V9.77075H199.706V8.77075H198.706ZM196.742 8.77075H195.742V9.77075H196.742V8.77075ZM196.742 0.239928V-0.760072H195.742V0.239928H196.742ZM199.211 0.239928L200.078 -0.258041L199.789 -0.760072H199.211V0.239928ZM201.86 4.85433L202.751 4.39986L202.74 4.37782L202.727 4.35636L201.86 4.85433ZM202.507 6.12103L201.616 6.5755L201.894 7.12103H202.507V6.12103ZM202.519 6.12103V7.12103H203.553L203.519 6.08826L202.519 6.12103ZM202.468 4.54412H201.468V4.56051L201.468 4.57689L202.468 4.54412ZM202.468 0.239928V-0.760072H201.468V0.239928H202.468ZM203.432 0.239928V8.77075H205.432V0.239928H203.432ZM204.432 7.77075H201.964V9.77075H204.432V7.77075ZM202.831 8.27278L200.181 3.65838L198.447 4.65432L201.096 9.26872L202.831 8.27278ZM200.205 3.70188L199.558 2.43518L197.777 3.34412L198.423 4.61082L200.205 3.70188ZM198.668 1.88965H198.655V3.88965H198.668V1.88965ZM197.655 2.92242L197.707 4.49933L199.706 4.43379L199.654 2.85688L197.655 2.92242ZM197.706 4.46656V8.77075H199.706V4.46656H197.706ZM198.706 7.77075H196.742V9.77075H198.706V7.77075ZM197.742 8.77075V0.239928H195.742V8.77075H197.742ZM196.742 1.23993H199.211V-0.760072H196.742V1.23993ZM198.343 0.737897L200.993 5.3523L202.727 4.35636L200.078 -0.258041L198.343 0.737897ZM200.969 5.3088L201.616 6.5755L203.397 5.66656L202.751 4.39986L200.969 5.3088ZM202.507 7.12103H202.519V5.12103H202.507V7.12103ZM203.519 6.08826L203.467 4.51135L201.468 4.57689L201.52 6.1538L203.519 6.08826ZM203.468 4.54412V0.239928H201.468V4.54412H203.468ZM202.468 1.23993H204.432V-0.760072H202.468V1.23993Z" fill="black"/>
</svg>
