<svg width="206" height="56" viewBox="0 0 206 56" fill="none" xmlns="http://www.w3.org/2000/svg">
<path d="M24.4973 55.8078C19.9195 55.8078 15.7995 54.8115 12.1373 52.8188C8.47503 50.7723 5.59373 47.7294 3.49333 43.6902C1.39294 39.5971 0.342745 34.5346 0.342745 28.5027C0.342745 22.6863 1.41987 17.7315 3.57412 13.6384C5.78222 9.4915 8.95974 6.34091 13.1067 4.18666C17.2536 1.97856 22.2084 0.874506 27.971 0.874506C34.5414 0.874506 39.7924 2.03241 43.7239 4.34823C47.7093 6.66405 50.7522 10.3801 52.8526 15.4965L35.3224 21.7976C34.9454 19.2664 34.1106 17.5161 32.818 16.5467C31.5793 15.5234 30.0175 15.0118 28.1326 15.0118C26.086 15.0118 24.4165 15.4965 23.1239 16.4659C21.8852 17.4353 20.9697 18.9163 20.3773 20.909C19.8387 22.8478 19.5694 25.3252 19.5694 28.3412C19.5694 31.6803 19.9195 34.3731 20.6196 36.4196C21.3736 38.4661 22.4776 39.9472 23.9318 40.8627C25.4397 41.7244 27.3247 42.1553 29.5867 42.1553C30.6638 42.1553 31.6332 42.0476 32.4949 41.8322C33.4105 41.6167 34.1914 41.2936 34.8377 40.8627C35.5378 40.378 36.0494 39.7856 36.3726 39.0855C36.7495 38.3854 36.938 37.5506 36.938 36.5812V36.5004H27.971V24.9482H52.691V55H40.2502L38.7153 40.7012L41.6235 43.8518C40.708 47.6756 38.7961 50.6376 35.8878 52.738C33.0335 54.7846 29.2366 55.8078 24.4973 55.8078ZM108.81 1.68235C113.603 1.68235 117.67 2.40941 121.009 3.86353C124.348 5.31764 126.879 7.44496 128.602 10.2455C130.326 13.046 131.187 16.4659 131.187 20.5051C131.187 24.5443 130.326 27.9642 128.602 30.7647C126.879 33.5652 124.348 35.6925 121.009 37.1467C117.67 38.6008 113.603 39.3278 108.81 39.3278H99.3584V55H80.5357V1.68235H108.81ZM105.74 25.9984C107.787 25.9984 109.403 25.5676 110.587 24.7059C111.772 23.7903 112.365 22.3901 112.365 20.5051C112.365 18.6201 111.772 17.2468 110.587 16.3851C109.403 15.4695 107.787 15.0118 105.74 15.0118H99.3584V25.9984H105.74ZM181.117 0.874506C186.233 0.874506 190.811 1.52078 194.85 2.81333C198.943 4.05202 202.551 5.93699 205.675 8.46823L198.081 20.5859C195.55 18.8086 192.884 17.3814 190.084 16.3043C187.337 15.2272 184.348 14.6886 181.117 14.6886C179.716 14.6886 178.585 14.7963 177.724 15.0118C176.916 15.2272 176.323 15.5234 175.946 15.9004C175.623 16.2774 175.462 16.7082 175.462 17.1929C175.462 17.8392 175.946 18.3239 176.916 18.6471C177.939 18.9702 179.205 19.3203 180.713 19.6973L188.064 21.3937C193.504 22.6324 197.597 24.4635 200.343 26.8871C203.144 29.3106 204.544 32.6766 204.544 36.9851C204.544 41.2936 203.494 44.8481 201.393 47.6486C199.293 50.3953 196.439 52.4418 192.83 53.7882C189.276 55.1346 185.237 55.8078 180.713 55.8078C177.32 55.8078 173.927 55.5116 170.534 54.9192C167.141 54.2729 163.99 53.3574 161.082 52.1725C158.174 50.9339 155.67 49.4528 153.569 47.7294L161.001 35.3694C162.563 36.6081 164.448 37.7391 166.656 38.7624C168.864 39.7318 171.153 40.5127 173.523 41.1051C175.893 41.6975 178.101 41.9937 180.147 41.9937C181.44 41.9937 182.463 41.886 183.217 41.6706C183.971 41.4552 184.483 41.1859 184.752 40.8627C185.075 40.4858 185.237 40.0549 185.237 39.5702C185.237 38.8162 184.913 38.2507 184.267 37.8737C183.675 37.4967 182.571 37.1197 180.955 36.7427L172.877 34.9655C170.022 34.3192 167.302 33.4575 164.717 32.3804C162.132 31.3033 160.032 29.7414 158.416 27.6949C156.801 25.5945 155.993 22.7671 155.993 19.2125C155.993 15.5503 156.962 12.3459 158.901 9.59921C160.894 6.85254 163.748 4.72522 167.464 3.21725C171.234 1.65542 175.785 0.874506 181.117 0.874506Z" fill="url(#paint0_linear_3_828)"/>
<defs>
<linearGradient id="paint0_linear_3_828" x1="-2" y1="27.5" x2="207" y2="27.5" gradientUnits="userSpaceOnUse">
<stop stop-color="#2A2D3E"/>
<stop offset="1" stop-color="#FFC633"/>
</linearGradient>
</defs>
</svg>
